<svg width="1300" height="300" xmlns="http://www.w3.org/2000/svg">

 <g>
  <title>background</title>
  <rect fill="none" id="canvas_background" height="402" width="582" y="-1" x="-1"/>
 </g>
 <g>
  <title>Layer 1</title>
  <rect id="svg_1" fill="none" stroke="black" stroke-width="1px" height="34" width="774" y="204" x="161"/>
  <path stroke="#000" id="svg_11" d="m173.042691,195.99993c-3.704632,3.429417 -8.825125,3.462706 -12.557895,0.102245c-3.590116,3.233187 -8.465935,3.32574 -12.129641,0.277537l-6.587837,8.102671c4.052443,5.074437 4.02889,13.227366 -0.06925,18.267012c-0.543898,1.720634 -0.828958,1.637662 -0.888294,3.370411c-0.139545,4.171738 0.677639,8.063436 3.23732,10.994458c2.286548,2.618223 5.38949,3.728665 8.370109,3.33246c4.977269,0.316279 7.363408,2.967496 8.364641,4.553209c1.351978,-1.694321 3.454428,-4.418134 9.8444,-4.757688c3.814544,-0.67716 5.193038,-1.77111 6.983286,-3.79363c2.409626,-2.759154 3.252185,-6.253063 3.181172,-10.135134c-0.029489,-1.611646 -0.189839,-2.171959 -0.981585,-4.229751c-4.117145,-5.063013 -4.12014,-13.268815 -0.010929,-18.337951l-6.755496,-7.74585z" stroke-width="1.5" fill="#fff"/>
  <path stroke="#000" id="svg_12" d="m173.04269,195.99993c-3.70463,3.42942 -8.82512,3.46271 -12.55789,0.10224c-3.59012,3.23319 -8.46594,3.32574 -12.12965,0.27754l-6.58783,8.10267c4.05244,5.07444 4.02889,13.22737 -0.06925,18.26701c-0.5439,1.72064 -0.82896,1.63767 -0.8883,3.37042c-0.13954,4.17173 0.67764,8.06343 3.23732,10.99445c2.28655,2.61823 5.38949,3.72867 8.37011,3.33246c4.97727,0.31628 7.36341,2.9675 8.36464,4.55321c1.35198,-1.69432 3.45443,-4.41813 9.8444,-4.75768c3.81455,-0.67716 5.19304,-1.77112 6.98329,-3.79363c2.40962,-2.75916 3.25218,-6.25307 3.18117,-10.13514c-0.02949,-1.61164 -0.18984,-2.17196 -0.98158,-4.22975c-4.11715,-5.06301 -4.12014,-13.26881 -0.01093,-18.33795l-6.7555,-7.74585z" stroke-width="1.5" fill="#fff"/>
  <path stroke="#000" id="svg_13" d="m173.04269,195.99993c-3.70463,3.42942 -8.82512,3.46271 -12.55789,0.10224c-3.59012,3.23319 -8.46594,3.32574 -12.12965,0.27754l-6.58783,8.10267c4.05244,5.07444 4.02889,13.22737 -0.06925,18.26701c-0.5439,1.72064 -0.82896,1.63767 -0.8883,3.37042c-0.13954,4.17173 0.67764,8.06343 3.23732,10.99445c2.28655,2.61823 5.38949,3.72867 8.37011,3.33246c4.97727,0.31628 7.36341,2.9675 8.36464,4.55321c1.35198,-1.69432 3.45443,-4.41813 9.8444,-4.75768c3.81455,-0.67716 5.19304,-1.77112 6.98329,-3.79363c2.40962,-2.75916 3.25218,-6.25307 3.18117,-10.13514c-0.02949,-1.61164 -0.18984,-2.17196 -0.98158,-4.22975c-4.11715,-5.06301 -4.12014,-13.26881 -0.01093,-18.33795l-6.7555,-7.74585z" stroke-width="1.5" fill="#fff"/>
  <path stroke="#000" id="svg_14" d="m947.068485,195.350579c-3.70463,3.42942 -8.82512,3.46271 -12.55789,0.10224c-3.59012,3.23319 -8.46594,3.32574 -12.12965,0.27754l-6.58783,8.10267c4.05244,5.07444 4.02889,13.22737 -0.06925,18.26701c-0.5439,1.72064 -0.82896,1.63767 -0.8883,3.37042c-0.13954,4.17173 0.67764,8.06343 3.23732,10.99445c2.28655,2.61823 5.38949,3.72867 8.37011,3.33246c4.97727,0.31628 7.36341,2.9675 8.36464,4.55321c1.35198,-1.69432 3.45443,-4.41813 9.8444,-4.75768c3.81455,-0.67716 5.19304,-1.77112 6.98329,-3.79363c2.40962,-2.75916 3.25218,-6.25307 3.18117,-10.13514c-0.02949,-1.61164 -0.18984,-2.17196 -0.98158,-4.22975c-4.11715,-5.06301 -4.12014,-13.26881 -0.01093,-18.33795l-6.7555,-7.74585z" stroke-width="1.5" fill="#7f7f7f"/>
  <path stroke="#000" id="svg_15" d="m173.04269,195.99993c-3.70463,3.42942 -8.82512,3.46271 -12.55789,0.10224c-3.59012,3.23319 -8.46594,3.32574 -12.12965,0.27754l-6.58783,8.10267c4.05244,5.07444 4.02889,13.22737 -0.06925,18.26701c-0.5439,1.72064 -0.82896,1.63767 -0.8883,3.37042c-0.13954,4.17173 0.67764,8.06343 3.23732,10.99445c2.28655,2.61823 5.38949,3.72867 8.37011,3.33246c4.97727,0.31628 7.36341,2.9675 8.36464,4.55321c1.35198,-1.69432 3.45443,-4.41813 9.8444,-4.75768c3.81455,-0.67716 5.19304,-1.77112 6.98329,-3.79363c2.40962,-2.75916 3.25218,-6.25307 3.18117,-10.13514c-0.02949,-1.61164 -0.18984,-2.17196 -0.98158,-4.22975c-4.11715,-5.06301 -4.12014,-13.26881 -0.01093,-18.33795l-6.7555,-7.74585z" stroke-width="1.5" fill="#7f7f7f"/>
 </g>
</svg>