<svg 
    xmlns="http://www.w3.org/2000/svg" 
    xmlns:xlink="http://www.w3.org/1999/xlink" width="1300" height="300" >

    <rect x="161" y="204" style="fill:none;stroke:black;stroke-width:1px;" id="e1_rectangle" width="774" height="34" ry="0" rx="0" />
    <path stroke="#000" d="M198.8620456550546,-10.361439128009579l-9.373000000000047,9.372000000000014l-9.373000000000047,-9.373000000000047c-12.497000000000071,-12.496999999999957,-32.758000000000294,-12.496999999999957,-45.255000000000365,0s-12.496999999999844,32.75800000000004,0,45.254999999999995l54.627000000000436,54.627000000000066l54.6279999999999,-54.627000000000066c12.49700000000027,-12.496999999999957,12.49700000000027,-32.75799999999998,0,-45.254999999999995s-32.75800000000001,-12.496999999999957,-45.25499999999985,0Z" style="fill:red;" transform="matrix(0.398178 0 0 0.398178 85.6252 203.299)"/>
    <path stroke="#000" d="M2140.159194084216,-10.40719802751147l-9.372999999999593,9.372000000000014l-9.373000000000047,-9.373000000000047c-12.497000000000298,-12.496999999999957,-32.758000000000266,-12.496999999999957,-45.255000000000564,0s-12.496999999999389,32.75800000000004,0,45.254999999999995l54.62700000000041,54.627000000000066l54.6279999999997,-54.627000000000066c12.496999999999844,-12.496999999999957,12.496999999999844,-32.75799999999998,0,-45.254999999999995s-32.758000000000266,-12.496999999999957,-45.25500000000011,0Z" style="fill:red;" transform="matrix(0.398178 0 0 0.398178 85.6252 203.299)"/>
</svg>