<?xml version="1.0" encoding="UTF-8" standalone="no"?>
<!-- Generator: Adobe Illustrator 16.0.0, SVG Export Plug-In . SVG Version: 6.00 Build 0)  -->

<svg
   xmlns:dc="http://purl.org/dc/elements/1.1/"
   xmlns:cc="http://creativecommons.org/ns#"
   xmlns:rdf="http://www.w3.org/1999/02/22-rdf-syntax-ns#"
   xmlns:svg="http://www.w3.org/2000/svg"
   xmlns="http://www.w3.org/2000/svg"
   xmlns:sodipodi="http://sodipodi.sourceforge.net/DTD/sodipodi-0.dtd"
   xmlns:inkscape="http://www.inkscape.org/namespaces/inkscape"
   version="1.1"
   width="300px"
   height="300px"
   viewBox="0 0 330 360"
>
<path
   fill="#fff"
   stroke="#231F20"
   stroke-width="2"
   stroke-miterlimit="10"
   d="M110.918,188.922  c-1.375,1.021-4.017,2.148-6.396,2.504c-0.071-3.75-2.123-5.178-0.769-9.27c-12.027-1.402-1.059-13.372,5.832-4.365  c3.329-3.761,5.388-3.824,10.465-3.333c-1.359,3.693,0.674,3.935-2.036,6.792c13.853,4.094-1.126,16.158-8.429,9.006"
   id="path87" />
<path
   fill="#fff"
   stroke="#231F20"
   stroke-width="2"
   stroke-miterlimit="10"
   d="M80.252,163.588c2.834,3.218,7.235,4.6,11.803,3.803  c0.299-1.259,0.073-2.351,0.395-3.605c5.697,1.889,12.994,2.386,12.935-5.334c-1.221-0.542-2.352,0.084-3.598-0.389  c2.646-5.882,0.67-11.861-6.963-11.637c-0.33,1.522-1.252,3.136-1.504,5.021c-4.31-6.775-13.741-10.066-18.264-1.457  c2.212,1.161,3.402,4.135,5.025,5.233c-4.442,3.681-2.648,4.868-3.628,9.497c4.263,1.379,6.594,0.008,9.132-2.465"
   id="path89" />
<path
   fill="#fff"
   stroke="#231F20"
   stroke-width="2"
   stroke-miterlimit="10"
   d="M220.475,13.748  c4.926-2.318,11.711-2.997,17.582-2.352c0.551,2.865,2.58,5.056,2.908,7.879c12.877-5.998,37.578-26.007,36.279,2.563  c15.252-1.571,25.432,1.194,22.967,15.783c10.953-0.039,18.414,7.004,15.717,15.781c-1.496,0.452-3.01,0.587-4.547,0.395  c22.168,8.29,21.053,41.021-2.846,26.892c0.896,11.387,1.457,29.291-4.838,39.821c-14.986,1.718-15.334-9.995-14.637-20.427  c0.473,9.823,3.816,19.032-4.842,25.176c-8.33,5.911-19.232,5.062-23.768-4.116c-0.729,15.656-30.08,32.099-35.395,10.139  c-6.512,16.21-30.375,17.493-32.241-1.197c-1.864,10.695-9.648,18.197-23.64,15.365c-0.438-3.351-3.081-6.057-3.034-9.497  c-9.516,19.157-34.848,10.912-38.307-5.926c-7.361,10.417-30.609,14.558-29.887-1.784c-5.395,16.669-36.796,15.802-34.527-3.42  c-10.855,1.054-22.108,2.997-33.273,2.935c-2.622-5.029-3.719-10.483-3.283-16.036c-4.578,1.582-12.929,0.642-17.596,2.088  C-5.26,95.823,6.075,83.83,33.03,84.695c-31.55-1.27-22.036-42.891-1.66-34.894c-0.421-10.374-1.271-14.16,7.338-20.474  c8.13-5.953,20.994-8.526,28.224-2.015c6.986-25.339,33.185-22.032,55.225-13.077c0.104,2.943,1.877,5.266,2.313,7.509  c20.643-5.901,30.083-13.053,46.924,4.287c10.762-10.191,18.128-6.479,29.229,1.732c5.34-7.351,14.41-11.554,21.683-17.427"
   id="path91" />
<g
   style="font-size:64px;font-style:normal;font-variant:normal;font-weight:bold;font-stretch:normal;line-height:125%;letter-spacing:0px;word-spacing:0px;fill:#000000;fill-opacity:1;stroke:none;font-family:Arial;-inkscape-font-specification:Arial Bold"
   id="text3074"><path
     d="m 59.956787,89.600555 0,-6.84375 12.4375,-14.28125 c 2.041651,-2.333309 3.552066,-3.989558 4.53125,-4.96875 -1.02085,0.06253 -2.364599,0.104193 -4.03125,0.125 l -11.71875,0.0625 0,-7.28125 27.4375,0 0,6.21875 -12.6875,14.625 -4.46875,4.84375 c 2.437485,-0.145825 3.9479,-0.218742 4.53125,-0.21875 l 13.59375,0 0,7.71875 z"
     style=""
     id="path3103" /></g><g
   transform="scale(1.0725327,0.9323725)"
   style="font-size:78.1072464px;font-style:normal;font-variant:normal;font-weight:bold;font-stretch:normal;line-height:125%;letter-spacing:0px;word-spacing:0px;fill:#000000;fill-opacity:1;stroke:none;font-family:Arial;-inkscape-font-specification:Arial Bold"
   id="text3082"><path
     d="m 93.313601,95.458969 0,-8.352288 15.179049,-17.429205 c 2.49168,-2.847632 4.33503,-4.86896 5.53005,-6.063991 -1.24587,0.07631 -2.88582,0.12716 -4.91984,0.152554 l -14.301865,0.07628 0,-8.886225 33.485435,0 0,7.589523 -15.48416,17.848726 -5.45377,5.911437 c 2.97477,-0.177969 4.81812,-0.266959 5.53005,-0.266968 l 16.59016,0 0,9.420161 z"
     style=""
     id="path3100" /></g><g
   transform="scale(1.0701744,0.93442714)"
   style="font-size:93.67607117px;font-style:normal;font-variant:normal;font-weight:bold;font-stretch:normal;line-height:125%;letter-spacing:0px;word-spacing:0px;fill:#000000;fill-opacity:1;stroke:none;font-family:Arial;-inkscape-font-specification:Arial Bold"
   id="text3086"><path
     d="m 139.13197,96.38488 0,-10.017119 18.20462,-20.903303 c 2.98835,-3.415239 5.19912,-5.839471 6.63234,-7.272703 -1.4942,0.09152 -3.46103,0.152506 -5.90049,0.182961 l -17.1526,0.09148 0,-10.657483 40.15995,0 0,9.102314 -18.57055,21.406446 -6.54085,7.089741 c 3.56771,-0.213443 5.77849,-0.32017 6.63233,-0.320181 l 19.89702,0 0,11.297846 z"
     style=""
     id="path3091" /><path
     d="m 191.13865,96.38488 0,-12.853016 12.85302,0 0,12.853016 z"
     style=""
     id="path3093" /><path
     d="m 217.11913,96.38488 0,-12.853016 12.85301,0 0,12.853016 z"
     style=""
     id="path3095" /><path
     d="m 243.0996,96.38488 0,-12.853016 12.85301,0 0,12.853016 z"
     style=""
     id="path3097" /></g></svg>