<?xml version="1.0" standalone="no"?><!-- Generator: Gravit.io --><svg xmlns="http://www.w3.org/2000/svg" xmlns:xlink="http://www.w3.org/1999/xlink" style="isolation:isolate" viewBox="0 0 450 450" width="450" height="450"><defs><clipPath id="_clipPath_JdGOb0P3lQIznYH1v1D3FnKJjeji9RrD"><rect width="450" height="450"/></clipPath></defs><g clip-path="url(#_clipPath_JdGOb0P3lQIznYH1v1D3FnKJjeji9RrD)"><g id="Group"><path d=" M 45 206.053 C 45 206.053 46.895 164.387 63.947 139.737 C 81 115.086 120.789 139.737 120.789 139.737 L 111.316 187.105 L 101.842 243.947 C 101.842 243.947 88.598 211.756 45 206.053 Z  M 405 206.053 C 405 206.053 403.105 164.387 386.053 139.737 C 369 115.086 329.211 139.737 329.211 139.737 L 338.684 187.105 L 348.158 243.947 C 348.158 243.947 361.402 211.756 405 206.053 Z  M 167.192 53.507 C 167.192 53.507 157.718 86.665 206.053 101.842 L 225 149.211 L 243.947 101.842 C 292.282 86.665 282.808 53.507 282.808 53.507 C 282.808 53.507 270.474 45 225 45 C 179.526 45 167.192 53.507 167.192 53.507 Z " fill="rgb(121,134,203)"/><path d=" M 310.263 82.895 L 282.808 53.507 C 282.808 53.507 292.282 86.665 243.947 101.842 L 225 149.211 L 206.053 101.842 C 157.718 86.665 167.192 53.507 167.192 53.507 L 139.737 82.895 C 139.737 82.895 92.368 168.158 92.368 234.474 C 92.368 301.756 120.789 329.211 120.789 329.211 C 120.789 329.211 142.579 357.632 225 357.632 C 307.421 357.632 329.211 329.211 329.211 329.211 C 329.211 329.211 357.632 301.756 357.632 234.474 C 357.632 155.842 310.263 82.895 310.263 82.895 Z " fill="rgb(197,202,233)"/><path d=" M 310.263 82.895 C 310.263 82.895 286.579 147.316 225 158.684 C 163.421 147.316 139.737 82.895 139.737 82.895 C 79.124 82.895 54.474 139.737 54.474 139.737 C 54.474 139.737 96.139 142.579 96.139 197.545 L 177.632 158.684 C 177.632 158.684 188.072 172.895 215.526 176.665 L 223.105 357.632 C 141.632 357.632 120.789 329.211 120.789 329.211 C 120.789 329.211 119.823 328.244 117.947 325.44 L 101.842 357.632 C 101.842 357.632 139.737 405 225 405 C 225 405 348.158 357.632 348.158 357.632 L 332.053 325.44 C 330.177 328.244 329.211 329.211 329.211 329.211 C 329.211 329.211 308.368 356.665 226.895 357.632 L 234.474 176.665 C 261.928 172.895 272.368 158.684 272.368 158.684 L 354.789 197.545 C 354.789 142.579 395.526 139.737 395.526 139.737 C 395.526 139.737 370.876 82.895 310.263 82.895 Z " fill="rgb(159,168,218)"/></g></g></svg>