<?xml version="1.0" standalone="no"?><!-- Generator: Gravit.io --><svg xmlns="http://www.w3.org/2000/svg" xmlns:xlink="http://www.w3.org/1999/xlink" style="isolation:isolate" viewBox="0 0 450 450" width="450" height="450"><defs><clipPath id="_clipPath_SEIZB331zOq2ugz06PT35UxtYzuv8iC3"><rect width="450" height="450"/></clipPath></defs><g clip-path="url(#_clipPath_SEIZB331zOq2ugz06PT35UxtYzuv8iC3)"><g id="Group"><path d=" M 225 347.848 L 129.431 365.203 L 130.669 180.111 L 319.312 180.111 L 320.56 365.203 L 225 347.848 Z " fill="rgb(152,204,253)"/><path d=" M 314.805 184.664 L 315.989 359.758 L 226.639 343.514 L 225 343.223 L 223.361 343.514 L 134.02 359.767 L 135.195 184.673 L 314.805 184.673 M 323.838 175.568 L 126.162 175.568 L 124.842 370.684 L 225 352.474 L 325.158 370.684 L 323.838 175.568 Z " fill="rgb(71,136,199)"/><path d=" M 257.114 300.301 C 281.762 285.75 296.13 276.818 301.111 271.847 C 314.795 257.981 314.721 235.67 300.947 221.896 C 287.172 208.121 264.861 208.047 250.996 221.731 C 246.379 226.32 237.629 237.128 225 253.845 C 212.371 237.128 203.657 226.348 199.068 221.795 C 192.438 215.115 183.404 211.376 173.992 211.415 C 164.592 211.378 155.57 215.118 148.953 221.795 C 135.114 235.634 135.114 258.071 148.953 271.91 C 153.897 276.854 167.701 285.432 192.886 300.301 L 184.564 391.845 L 86.145 359.057 L 111.721 316.444 L 110.866 314.35 C 110.547 313.567 78.851 234.105 101.797 171.962 C 119.37 124.478 167.628 99.12 199.605 82.293 C 210.35 76.675 219.2 72.013 225.282 67.497 C 231.328 71.977 240.124 76.639 250.75 82.293 C 282.509 99.12 330.457 124.514 348.203 171.962 C 371.75 234.916 339.49 313.521 339.171 314.304 L 338.279 316.435 L 363.855 359.048 L 265.436 391.872 L 257.114 300.301 Z " fill="rgb(182,220,254)"/><path d=" M 225.282 73.06 C 231.365 77.149 239.259 81.346 248.619 86.29 C 279.777 102.789 326.797 127.719 343.933 173.537 C 366.842 234.743 335.292 311.755 334.973 312.529 L 333.198 316.763 L 335.583 320.715 L 357.063 356.526 L 269.461 385.726 L 261.922 302.75 C 289.165 286.634 299.69 279.741 304.352 275.043 C 311.873 267.56 316.087 257.379 316.053 246.771 C 316.082 236.16 311.87 225.978 304.352 218.49 C 296.85 210.971 286.656 206.759 276.035 206.789 C 265.428 206.762 255.249 210.975 247.763 218.49 C 243.493 222.797 235.844 232.148 225 246.343 C 214.156 232.148 206.544 222.833 202.273 218.563 C 194.799 211.018 184.612 206.787 173.992 206.817 C 163.376 206.79 153.192 211.021 145.72 218.563 C 130.111 234.178 130.111 259.49 145.72 275.106 C 150.346 279.741 160.872 286.643 188.078 302.75 L 180.539 385.726 L 92.974 356.526 L 114.462 320.715 L 116.766 316.836 L 115.063 312.602 C 114.744 311.819 83.686 234.069 106.058 173.501 C 123.039 127.692 170.368 102.789 201.7 86.363 C 211.169 81.383 219.164 77.185 225.282 73.051 M 225.282 61.67 C 204.659 79.917 122.393 103.117 97.526 170.368 C 73.661 234.961 106.632 316.053 106.632 316.053 L 79.316 361.579 L 188.579 398 L 197.684 297.842 C 172.108 282.764 156.893 273.44 152.158 268.678 C 140.593 256.535 140.827 237.384 152.684 225.526 C 164.541 213.669 183.693 213.435 195.836 225 C 200.206 229.371 209.312 240.506 225 261.421 C 240.688 240.506 249.857 229.307 254.201 224.927 C 266.273 212.868 285.833 212.868 297.906 224.927 C 309.966 237.003 309.966 256.566 297.906 268.642 C 293.144 273.376 277.892 282.755 252.316 297.842 L 261.421 398 L 370.684 361.579 L 343.368 316.053 C 343.368 316.053 376.949 235.808 352.474 170.368 C 327.361 103.217 245.942 79.917 225.282 61.67 Z " fill="rgb(71,136,199)"/><path d=" M 201.7 86.354 C 170.368 102.789 123.03 127.692 106.067 173.537 C 83.686 234.105 114.735 311.855 115.054 312.593 L 116.757 316.827 L 114.407 320.742 L 92.928 356.526 L 180.53 385.717 L 188.069 302.741 C 160.863 286.624 150.337 279.732 145.711 275.106 C 130.499 259.424 130.688 234.437 146.136 218.987 C 161.583 203.537 186.571 203.344 202.255 218.553 C 206.535 222.824 214.147 232.139 224.991 246.325 L 224.991 73.243 C 218.909 77.294 211.014 81.456 201.691 86.363 L 201.7 86.354 Z " fill="rgb(223,240,254)"/><path d=" M 188.579 179.474 C 188.579 184.482 184.482 188.579 179.474 188.579 C 174.466 188.579 170.368 184.482 170.368 179.474 C 170.368 174.466 174.466 170.368 179.474 170.368 C 184.482 170.368 188.579 174.466 188.579 179.474 Z  M 161.263 179.474 C 161.263 184.482 157.166 188.579 152.158 188.579 C 147.15 188.579 143.053 184.482 143.053 179.474 C 143.053 174.466 147.15 170.368 152.158 170.368 C 157.166 170.368 161.263 174.466 161.263 179.474 Z  M 133.947 179.474 C 133.947 184.482 129.85 188.579 124.842 188.579 C 119.834 188.579 115.737 184.482 115.737 179.474 C 115.737 174.466 119.834 170.368 124.842 170.368 C 129.85 170.368 133.947 174.466 133.947 179.474 Z  M 225 253.845 C 212.617 237.456 203.694 226.384 199.068 221.768 C 198.177 220.877 197.241 220.032 196.264 219.236 C 203.02 179.792 218.098 107.096 225 74.262 C 235.316 123.34 247.8 184.418 253.736 219.236 C 252.776 219.999 251.864 220.82 251.005 221.695 C 246.343 226.348 237.374 237.447 225 253.845 Z " fill="rgb(152,204,253)"/><path d=" M 225 96.525 C 236.172 150.273 244.458 192.312 248.792 217.497 C 248.473 217.816 248.118 218.135 247.79 218.453 C 243.356 222.906 235.708 232.22 225 246.306 C 214.292 232.257 206.68 222.933 202.31 218.563 L 201.208 217.497 C 206.826 185.055 217.57 132.345 225 96.525 Z  M 225 52 C 225 52 224.071 56.371 222.542 63.837 C 216.004 94.886 198.322 179.474 191.311 221.267 C 192.949 222.359 194.406 223.543 195.863 225 C 200.243 229.371 209.348 240.479 225 261.421 C 240.652 240.479 249.857 229.27 254.228 224.891 C 255.594 223.543 257.151 222.259 258.689 221.267 C 251.678 179.292 233.823 94.075 227.386 63.382 C 225.929 56.188 225 52 225 52 Z " fill="rgb(71,136,199)"/><path d=" M 279.632 179.474 C 279.632 184.482 275.534 188.579 270.526 188.579 C 265.518 188.579 261.421 184.482 261.421 179.474 C 261.421 174.466 265.518 170.368 270.526 170.368 C 275.534 170.368 279.632 174.466 279.632 179.474 Z  M 306.947 179.474 C 306.947 184.482 302.85 188.579 297.842 188.579 C 292.834 188.579 288.737 184.482 288.737 179.474 C 288.737 174.466 292.834 170.368 297.842 170.368 C 302.85 170.368 306.947 174.466 306.947 179.474 Z  M 334.263 179.474 C 334.263 184.482 330.166 188.579 325.158 188.579 C 320.15 188.579 316.053 184.482 316.053 179.474 C 316.053 174.466 320.15 170.368 325.158 170.368 C 330.166 170.368 334.263 174.466 334.263 179.474 Z  M 225 96.525 C 217.57 132.345 206.826 185.055 201.208 217.497 C 201.563 217.852 201.955 218.207 202.301 218.563 C 206.68 222.933 214.292 232.257 225 246.306 L 225 96.525 Z " fill="rgb(255,255,255)"/></g></g></svg>