<?xml version="1.0" encoding="UTF-8" standalone="no"?>
<!DOCTYPE svg PUBLIC "-//W3C//DTD SVG 1.1//EN" "http://www.w3.org/Graphics/SVG/1.1/DTD/svg11.dtd">
<svg version="1.1" xmlns="http://www.w3.org/2000/svg" xmlns:xlink="http://www.w3.org/1999/xlink" preserveAspectRatio="xMidYMid meet" viewBox="0 0 640 640" width="128" height="128"><defs><path d="M309.79 421.67L184.11 370.92L257.5 306.4L324.46 326.27L385.92 351.04L309.79 421.67Z" id="fpb1H80yk"></path><linearGradient id="gradientdROu7XgEt" gradientUnits="userSpaceOnUse" x1="363.6" y1="351.2" x2="204.6" y2="366.79"><stop style="stop-color: #b1b1b1;stop-opacity: 1" offset="0%"></stop><stop style="stop-color: #e4e4e4;stop-opacity: 1" offset="100%"></stop></linearGradient><path d="M313.15 593.85L144.36 528.1L193.59 478.55L384.39 480.08L420.17 497.21L313.15 593.85Z" id="j2AoTW4GZ"></path><linearGradient id="gradientaWp2vpgaP" gradientUnits="userSpaceOnUse" x1="318.04" y1="586.65" x2="173.41" y2="524.55"><stop style="stop-color: #b1b1b1;stop-opacity: 1" offset="0%"></stop><stop style="stop-color: #e4e4e4;stop-opacity: 1" offset="100%"></stop></linearGradient><path d="M389.9 503L310.09 570.6L309.79 421.37L387.76 350.13L389.9 503Z" id="b2KkJTJzFe"></path><linearGradient id="gradientded06wYWL" gradientUnits="userSpaceOnUse" x1="379.2" y1="505.6" x2="314.68" y2="424.89"><stop style="stop-color: #b1b1b1;stop-opacity: 1" offset="0%"></stop><stop style="stop-color: #e4e4e4;stop-opacity: 1" offset="100%"></stop></linearGradient><path d="M424.45 509.15L313.76 609.1L311.31 607.9L313.15 593.5L422.92 497.82L424.45 509.15Z" id="fFazzr3MY"></path><linearGradient id="gradientjeV6RsXbQ" gradientUnits="userSpaceOnUse" x1="375.22" y1="551.15" x2="367.88" y2="542.6"><stop style="stop-color: #b1b1b1;stop-opacity: 1" offset="0%"></stop><stop style="stop-color: #e4e4e4;stop-opacity: 1" offset="100%"></stop></linearGradient><path d="M321.25 392.19L324.69 404.38L310 422.97L183.75 370.63L248.13 315.63L283.13 326.56L321.25 392.19Z" id="dgtIpGXwO"></path><path d="M338.13 380.14L348.3 366.44L347.86 355.39L335.04 341.25L320.9 336.39L276.7 333.74L263.89 335.5L234.72 340.81L223.23 345.67L216.16 362.02L226.32 378.37L248.42 389.42L276.26 394.28L293.5 393.84L321.78 391.63L338.13 380.14Z" id="c1YtBsebAz"></path><linearGradient id="gradientdsY2qCKY8" gradientUnits="userSpaceOnUse" x1="348.3" y1="364.01" x2="91.54" y2="157.62"><stop style="stop-color: #b49900;stop-opacity: 1" offset="0%"></stop><stop style="stop-color: #ffda0a;stop-opacity: 1" offset="50%"></stop><stop style="stop-color: #c6a800;stop-opacity: 1" offset="100%"></stop></linearGradient><path d="M456.6 75.68L415.09 170.38L427.19 176.43L431.95 189.84L416.82 194.16L420.28 201.95L419.41 216.22L412.92 228.33L394.33 217.52L368.82 221.41L348.92 225.3L329.9 244.33L318.65 268.11L321.68 280.21L318.22 283.67L319.09 295.78L320.38 308.32C320.12 324.93 319.98 334.16 319.95 336C319.13 348.01 328.85 355.95 336.09 363.35C335.16 365.19 330.5 374.38 322.11 390.92L315.19 403.03L307.41 405.62L298.33 402.16L293.57 394.38L301.39 357.68L285.59 352.9C267.77 366.22 257.87 373.62 255.9 375.11C248.78 373.32 242.36 377.86 234.19 366.58C234.53 365.36 237.29 355.6 237.63 354.38C251.67 339.73 266.07 340.23 281.73 342.16C281.39 341.61 279.72 338.83 276.71 333.84L272.82 325.62L262.87 319.14L243.41 326.92L226.98 341.62L225.25 323.46L213.14 291.46L210.98 271.57L210.98 251.68L210.98 240.87L215.73 208L218.33 198.92L227.41 206.71L242.11 216.22L254.22 221.84L249.9 206.71L254.22 191.14L260.71 185.08L272.38 182.06L276.7 179.89L277.14 176.87L268.06 169.95L277.57 158.71L268.92 156.11L274.98 140.98L268.92 122.81L268.49 105.95L275.41 86.06L275.41 98.16L281.9 116.33L286.22 124.11L296.6 117.62L306.55 121.52L317.79 129.73L327.3 116.76L342.01 88.65L341.14 99.03L341.14 109.41L340.28 126.71L333.79 140.11L322.11 150.92L324.71 156.54L325.14 168.65L322.98 169.95L321.25 187.25L340.28 189.84L354.98 201.52L358.01 201.52L370.55 192.87L381.79 180.76L375.3 163.46L380.06 160.43L395.19 163.89L415.95 98.16L423.3 64L457.46 37.62L456.6 75.68Z" id="ddr8pXDG6"></path><linearGradient id="gradientb8uDn2BmXJ" gradientUnits="userSpaceOnUse" x1="334.22" y1="236.98" x2="250.76" y2="221.62"><stop style="stop-color: #b49900;stop-opacity: 1" offset="0%"></stop><stop style="stop-color: #ffda0a;stop-opacity: 1" offset="50%"></stop><stop style="stop-color: #c6a800;stop-opacity: 1" offset="100%"></stop></linearGradient><path d="M317.54 325.36C323.02 328.35 318.74 330.82 321.41 336.56C321.58 350.29 331.5 358.35 334.63 364.64C330.27 374.64 330.01 379.36 322.83 390.3C320.32 394.13 327.08 402 325.12 406.28C322.17 412.7 310.78 416.17 309.57 422.06C309.6 432 309.74 481.73 310.01 571.25L313.9 595.05L313.03 608.85L423.3 509.85L422.87 498.6L390.44 482.16L386.55 350.71C345.14 335.5 322.14 327.05 317.54 325.36Z" id="ahMPGIUBh"></path><path d="M340.63 122.5L330.31 143.13L321.88 152.5L324.69 167.5L310.31 160.31L291.25 158.75L269.38 155.31L274.69 140.62L283.13 128.44L294.06 120.94L304.69 120.94L313.13 127.19L317.5 132.19L325.31 122.5L333.13 106.56L340.63 92.5L340.63 122.5Z" id="dc8q4IyTs"></path><linearGradient id="gradiente7Ly4REmoN" gradientUnits="userSpaceOnUse" x1="276.71" y1="105.52" x2="319.95" y2="167.5"><stop style="stop-color: #b49900;stop-opacity: 1" offset="0%"></stop><stop style="stop-color: #ffda0a;stop-opacity: 1" offset="50%"></stop><stop style="stop-color: #c6a800;stop-opacity: 1" offset="100%"></stop></linearGradient><path d="M392.97 162.97L395.78 163.6L394.53 169.69L397.81 175.47L402.5 178.28L408.91 177.03L412.81 175.47L415.94 169.38L426.25 176.1L430.94 185.63L431.41 191.41L412.5 195.47L400.63 195.16L391.72 191.72L383.44 185L376.41 170.63L376.72 163.28L385 160.47L392.97 162.97Z" id="bbo7kXKrF"></path><linearGradient id="gradientkcoL0FSbz" gradientUnits="userSpaceOnUse" x1="427.08" y1="188.34" x2="381.6" y2="166.73"><stop style="stop-color: #b49900;stop-opacity: 1" offset="0%"></stop><stop style="stop-color: #ffda0a;stop-opacity: 1" offset="50%"></stop><stop style="stop-color: #c6a800;stop-opacity: 1" offset="100%"></stop></linearGradient><path d="M232.5 210.63L248.28 219.53L274.06 225.63L284.69 227.19L279.53 278.91L282.03 311.56L263.59 319.22L238.28 330.63L226.25 342.19L226.88 329.69L214.69 294.22L210.47 267.5L210.47 249.53L214.06 216.25L219.84 200L232.5 210.63Z" id="aq91K7jgA"></path><linearGradient id="gradientguoPF3qNk" gradientUnits="userSpaceOnUse" x1="266.53" y1="310.88" x2="219.98" y2="241.69"><stop style="stop-color: #b49900;stop-opacity: 1" offset="0%"></stop><stop style="stop-color: #ffda0a;stop-opacity: 1" offset="50%"></stop><stop style="stop-color: #c6a800;stop-opacity: 1" offset="100%"></stop></linearGradient><path d="M312.54 608.5L142.22 539.4L141.91 527.8L312.54 593.85L312.54 608.5Z" id="a35TczRzjP"></path><linearGradient id="gradientg1meFyDL1J" gradientUnits="userSpaceOnUse" x1="270.39" y1="589.25" x2="159.29" y2="534.2"><stop style="stop-color: #b1b1b1;stop-opacity: 1" offset="0%"></stop><stop style="stop-color: #e4e4e4;stop-opacity: 1" offset="100%"></stop></linearGradient><path d="M309.17 422.6L181.97 370.61L178.3 522.9L311.01 570.6L309.17 422.6Z" id="i2s3mM0rck"></path><linearGradient id="gradiente1GDoeHQ5l" gradientUnits="userSpaceOnUse" x1="293.33" y1="553.15" x2="193.84" y2="381.62"><stop style="stop-color: #b1b1b1;stop-opacity: 1" offset="0%"></stop><stop style="stop-color: #e4e4e4;stop-opacity: 1" offset="100%"></stop></linearGradient><path d="M455.69 76.53L411.94 175.52L404.87 179.06L401.33 177.73C397.35 173.22 395.14 170.72 394.7 170.22C394.7 170.22 420.78 66.8 423.43 63.71C426.08 60.62 457.46 37.63 457.9 37.19C457.61 42.44 456.87 55.55 455.69 76.53Z" id="baAFZr0O"></path><linearGradient id="gradientaQwbCfDDs" gradientUnits="userSpaceOnUse" x1="478.87" y1="-84.54" x2="404.71" y2="173.84"><stop style="stop-color: #b49900;stop-opacity: 1" offset="0%"></stop><stop style="stop-color: #ffda0a;stop-opacity: 1" offset="50%"></stop><stop style="stop-color: #c6a800;stop-opacity: 1" offset="100%"></stop></linearGradient><path d="M416.88 168.91L418.02 169.49L419.1 170.08L420.14 170.67L421.12 171.25L422.06 171.84L422.94 172.42L423.79 173L424.58 173.59L425.33 174.17L426.04 174.75L426.7 175.33L427.33 175.91L427.92 176.49L428.46 177.07L428.98 177.65L429.45 178.23L429.89 178.8L430.3 179.38L430.68 179.96L431.03 180.54L431.35 181.12L431.64 181.7L431.9 182.28L432.14 182.85L432.36 183.43L432.55 184.01L432.72 184.59L432.88 185.17L433.01 185.75L433.12 186.34L433.22 186.92L433.31 187.5L433.38 188.08L433.43 188.67L433.48 189.25L433.52 189.84L433.54 190.42L433.57 191.01L433.58 191.6L433.59 192.19L433.17 192.32L432.76 192.45L432.35 192.58L431.94 192.7L431.54 192.82L431.14 192.93L430.73 193.05L430.34 193.16L429.94 193.27L429.54 193.37L429.15 193.48L428.76 193.58L428.37 193.68L427.99 193.77L427.6 193.87L427.22 193.96L426.84 194.05L426.46 194.14L426.09 194.22L425.71 194.31L425.34 194.39L424.97 194.47L424.6 194.54L424.24 194.62L423.87 194.69L423.51 194.76L423.15 194.83L422.79 194.9L422.43 194.97L422.07 195.04L421.72 195.1L421.36 195.16L421.01 195.23L420.66 195.29L420.31 195.34L419.96 195.4L419.62 195.46L419.27 195.52L418.93 195.57L418.59 195.63L419.07 196.36L419.51 197.11L419.91 197.86L420.26 198.61L420.59 199.38L420.87 200.15L421.12 200.92L421.33 201.7L421.51 202.49L421.65 203.28L421.76 204.08L421.84 204.88L421.89 205.69L421.9 206.51L421.89 207.32L421.84 208.15L421.77 208.98L421.67 209.81L421.54 210.65L421.38 211.49L421.2 212.33L421 213.18L420.77 214.04L420.51 214.9L420.24 215.76L419.94 216.62L419.62 217.49L419.28 218.37L418.92 219.24L418.54 220.12L418.15 221L417.74 221.89L417.31 222.78L416.86 223.67L416.4 224.56L415.93 225.46L415.44 226.35L414.94 227.25L414.43 228.16L413.91 229.06L413.27 229.06L412.64 229.03L412.01 228.97L411.38 228.87L410.75 228.75L410.12 228.61L409.5 228.43L408.87 228.24L408.26 228.02L407.64 227.78L407.03 227.51L406.43 227.24L405.83 226.94L405.24 226.63L404.66 226.31L404.08 225.97L403.51 225.62L402.95 225.27L402.4 224.9L401.86 224.53L401.33 224.15L400.81 223.77L400.3 223.39L399.8 223.01L399.31 222.63L398.84 222.25L398.38 221.87L397.94 221.5L397.51 221.13L397.1 220.78L396.7 220.43L396.31 220.09L395.95 219.77L395.6 219.46L395.27 219.16L394.96 218.89L394.66 218.63L394.39 218.39L394.14 218.17L393.91 217.97L351.41 226.56L350.37 227.22L349.34 227.89L348.31 228.59L347.28 229.3L346.26 230.02L345.25 230.77L344.24 231.54L343.25 232.32L342.26 233.13L341.28 233.95L340.31 234.8L339.35 235.67L338.4 236.55L337.47 237.46L336.55 238.39L335.65 239.34L334.77 240.32L333.9 241.32L333.05 242.34L332.21 243.38L331.4 244.45L330.61 245.54L329.84 246.65L329.09 247.79L328.37 248.96L327.67 250.15L326.99 251.37L326.34 252.61L325.72 253.88L325.13 255.18L324.56 256.5L324.03 257.85L323.53 259.23L323.05 260.64L322.61 262.07L322.21 263.54L321.84 265.03L321.5 266.55L321.2 268.11L320.94 269.69L320.82 269.91L320.73 270.14L320.66 270.39L320.61 270.65L320.57 270.93L320.55 271.22L320.54 271.52L320.55 271.83L320.57 272.16L320.61 272.49L320.65 272.83L320.71 273.18L320.78 273.54L320.86 273.9L320.94 274.27L321.04 274.64L321.14 275.02L321.25 275.4L321.36 275.79L321.48 276.17L321.6 276.56L321.72 276.94L321.85 277.33L321.97 277.71L322.1 278.09L322.22 278.47L322.35 278.84L322.47 279.21L322.59 279.58L322.7 279.93L322.81 280.28L322.91 280.62L323.01 280.96L323.1 281.28L323.18 281.59L323.25 281.89L323.32 282.18L323.37 282.46L323.41 282.72L323.44 282.97L320 283.91L319.84 294.06L320 294.8L320.14 295.53L320.28 296.27L320.4 297.01L320.52 297.75L320.63 298.49L320.73 299.24L320.82 299.98L320.9 300.73L320.98 301.47L321.05 302.22L321.11 302.97L321.17 303.72L321.22 304.47L321.26 305.23L321.3 305.98L321.33 306.73L321.36 307.49L321.39 308.24L321.41 309L321.43 309.76L321.44 310.52L321.45 311.27L321.46 312.03L321.47 312.79L321.47 313.55L321.48 314.31L321.48 315.08L321.48 315.84L321.48 316.6L321.48 317.36L321.49 318.12L321.49 318.88L321.49 319.65L321.5 320.41L321.51 321.17L321.52 321.93L321.53 322.7L321.54 323.46L321.56 324.22L388.59 350.94L391.88 482.19L392.67 482.62L393.47 483.05L394.27 483.48L395.07 483.9L395.87 484.33L396.68 484.75L397.5 485.17L398.31 485.58L399.13 486L399.94 486.41L400.77 486.82L401.59 487.23L402.41 487.64L403.24 488.04L404.06 488.45L404.89 488.85L405.72 489.25L406.55 489.64L407.38 490.04L408.21 490.43L409.04 490.82L409.88 491.21L410.71 491.59L411.54 491.97L412.37 492.36L413.2 492.73L414.03 493.11L414.86 493.49L415.69 493.86L416.51 494.23L417.34 494.6L418.16 494.96L418.99 495.33L419.81 495.69L420.63 496.05L421.44 496.4L422.26 496.76L423.07 497.11L423.88 497.46L424.69 497.81L425.16 509.4L314.69 610.45L140.94 540.6L140.31 527.8L177.03 494.37L181.41 371.25L225.47 332.35L225.33 331.27L225.17 330.21L225.01 329.15L224.82 328.09L224.62 327.04L224.41 325.99L224.19 324.95L223.95 323.91L223.7 322.87L223.44 321.84L223.17 320.81L222.89 319.79L222.59 318.77L222.29 317.75L221.98 316.73L221.66 315.72L221.33 314.71L220.99 313.7L220.65 312.7L220.3 311.7L219.94 310.7L219.58 309.7L219.21 308.7L218.84 307.71L218.46 306.71L218.08 305.72L217.7 304.73L217.32 303.74L216.93 302.75L216.54 301.76L216.15 300.77L215.75 299.79L215.36 298.8L214.97 297.81L214.58 296.82L214.19 295.83L213.8 294.85L213.42 293.86L213.03 292.87L212.66 291.87L212.25 289.46L211.87 287.04L211.53 284.63L211.22 282.22L210.94 279.82L210.69 277.41L210.48 275.01L210.29 272.62L210.13 270.22L210 267.83L209.91 265.45L209.84 263.06L209.8 260.68L209.78 258.3L209.8 255.92L209.84 253.55L209.91 251.17L210 248.81L210.13 246.44L210.27 244.07L210.44 241.71L210.64 239.35L210.86 236.99L211.11 234.64L211.37 232.28L211.67 229.93L211.98 227.58L212.32 225.23L212.68 222.89L213.06 220.54L213.46 218.2L213.88 215.86L214.33 213.52L214.79 211.18L215.27 208.85L215.77 206.51L216.29 204.18L216.83 201.85L217.39 199.52L217.97 197.19L218.72 197.91L219.49 198.62L220.26 199.33L221.03 200.04L221.81 200.75L222.6 201.45L223.39 202.14L224.18 202.83L224.98 203.52L225.79 204.2L226.6 204.87L227.42 205.54L228.24 206.2L229.06 206.86L229.89 207.5L230.73 208.14L231.57 208.77L232.41 209.39L233.26 210.01L234.12 210.61L234.97 211.21L235.84 211.79L236.7 212.36L237.57 212.93L238.45 213.48L239.33 214.02L240.21 214.54L241.1 215.06L241.99 215.56L242.88 216.05L243.78 216.53L244.68 216.99L245.59 217.44L246.5 217.88L247.41 218.29L248.33 218.7L249.25 219.09L250.17 219.46L251.1 219.82L252.03 220.15L251.55 218.86L251.11 217.57L250.71 216.28L250.34 215L250.01 213.73L249.72 212.47L249.47 211.21L249.26 209.97L249.1 208.73L248.97 207.51L248.9 206.31L248.87 205.12L248.88 203.94L248.94 202.78L249.05 201.64L249.21 200.51L249.42 199.41L249.68 198.32L250 197.26L250.37 196.22L250.79 195.21L251.26 194.21L251.8 193.25L252.39 192.31L253.04 191.4L253.75 190.51L254.52 189.66L255.35 188.84L256.24 188.05L257.2 187.29L258.22 186.56L259.3 185.87L260.46 185.22L261.68 184.6L262.96 184.02L264.32 183.48L265.75 182.98L267.25 182.52L268.82 182.1L270.47 181.72L270.49 181.62L270.54 181.51L270.6 181.42L270.68 181.32L270.77 181.22L270.88 181.13L271 181.04L271.14 180.95L271.28 180.86L271.44 180.78L271.61 180.69L271.78 180.61L271.97 180.52L272.16 180.44L272.35 180.36L272.56 180.28L272.76 180.2L272.97 180.12L273.18 180.04L273.39 179.95L273.6 179.87L273.81 179.79L274.01 179.71L274.22 179.63L274.42 179.55L274.61 179.46L274.8 179.38L274.98 179.29L275.15 179.2L275.32 179.12L275.47 179.03L275.61 178.93L275.75 178.84L275.86 178.75L275.97 178.65L276.06 178.55L276.13 178.45L276.19 178.34L276.23 178.23L276.25 178.12L276.26 177.96L276.24 177.78L276.17 177.6L276.07 177.41L275.93 177.22L275.77 177.02L275.57 176.82L275.34 176.61L275.09 176.4L274.81 176.19L274.52 175.97L274.2 175.75L273.87 175.52L273.52 175.3L273.16 175.07L272.78 174.84L272.4 174.61L272.02 174.37L271.62 174.14L271.23 173.91L270.84 173.67L270.44 173.44L270.06 173.21L269.68 172.98L269.31 172.75L268.94 172.52L268.6 172.29L268.26 172.07L267.95 171.84L267.65 171.63L267.38 171.41L267.13 171.2L266.9 170.99L266.71 170.79L266.54 170.59L266.41 170.4L266.31 170.21L266.25 170.03L266.23 169.86L266.25 169.69L266.32 169.42L266.42 169.16L266.54 168.9L266.69 168.65L266.85 168.4L267.03 168.15L267.23 167.91L267.44 167.66L267.67 167.43L267.91 167.19L268.16 166.96L268.42 166.73L268.7 166.5L268.98 166.27L269.27 166.04L269.56 165.81L269.86 165.59L270.16 165.37L270.47 165.14L270.78 164.92L271.08 164.7L271.39 164.47L271.69 164.25L271.99 164.02L272.29 163.8L272.58 163.57L272.86 163.34L273.13 163.11L273.4 162.88L273.65 162.65L273.89 162.41L274.12 162.18L274.33 161.93L274.53 161.69L274.71 161.44L274.87 161.19L275.01 160.94L275.13 160.68L275.23 160.42L275.31 160.15L275.24 159.93L275.14 159.72L275.03 159.52L274.89 159.33L274.73 159.15L274.56 158.98L274.37 158.83L274.16 158.68L273.94 158.54L273.71 158.41L273.47 158.28L273.21 158.16L272.95 158.05L272.68 157.94L272.41 157.84L272.13 157.74L271.85 157.64L271.56 157.55L271.28 157.46L270.99 157.37L270.71 157.29L270.43 157.2L270.16 157.11L269.89 157.02L269.63 156.93L269.37 156.84L269.13 156.75L268.9 156.65L268.68 156.55L268.48 156.44L268.29 156.33L268.12 156.22L267.96 156.09L267.83 155.96L267.71 155.82L267.62 155.68L267.55 155.52L267.51 155.36L267.49 155.18L267.5 155L267.55 154.57L267.61 154.14L267.68 153.71L267.76 153.29L267.84 152.87L267.92 152.46L268.02 152.05L268.12 151.65L268.22 151.25L268.33 150.85L268.45 150.46L268.57 150.07L268.7 149.69L268.83 149.31L268.96 148.93L269.1 148.56L269.25 148.19L269.4 147.82L269.55 147.46L269.71 147.1L269.87 146.74L270.03 146.39L270.2 146.03L270.37 145.69L270.55 145.34L270.72 145L270.9 144.66L271.09 144.32L271.27 143.99L271.46 143.66L271.65 143.33L271.84 143L272.04 142.68L272.23 142.36L272.43 142.04L272.63 141.72L272.83 141.41L273.03 141.09L273.23 140.78L273.44 140.47L272.81 139.02L272.21 137.56L271.65 136.09L271.11 134.62L270.61 133.15L270.14 131.68L269.7 130.2L269.3 128.72L268.93 127.24L268.59 125.76L268.29 124.28L268.02 122.8L267.79 121.32L267.6 119.84L267.44 118.36L267.31 116.88L267.23 115.41L267.18 113.94L267.17 112.47L267.2 111.01L267.26 109.55L267.37 108.09L267.51 106.64L267.69 105.2L267.92 103.76L268.18 102.33L268.49 100.91L268.84 99.49L269.23 98.08L269.66 96.68L270.13 95.29L270.65 93.91L271.21 92.54L271.82 91.19L272.47 89.84L273.17 88.5L273.91 87.18L274.69 85.86L275.53 84.57L276.41 83.28L276.25 84.31L276.13 85.33L276.02 86.34L275.94 87.35L275.88 88.35L275.85 89.35L275.83 90.34L275.84 91.33L275.86 92.31L275.91 93.28L275.98 94.26L276.07 95.23L276.19 96.19L276.32 97.16L276.47 98.12L276.64 99.08L276.83 100.03L277.04 100.99L277.27 101.94L277.52 102.89L277.79 103.85L278.07 104.8L278.38 105.75L278.7 106.71L279.04 107.66L279.4 108.62L279.77 109.58L280.16 110.54L280.57 111.5L280.99 112.46L281.43 113.43L281.89 114.4L282.36 115.38L282.85 116.36L283.35 117.34L283.87 118.33L284.4 119.33L284.95 120.33L285.51 121.33L286.09 122.34L286.82 121.72L287.56 121.14L288.3 120.61L289.05 120.12L289.81 119.68L290.57 119.28L291.33 118.93L292.1 118.62L292.88 118.35L293.65 118.12L294.43 117.94L295.22 117.8L296 117.7L296.79 117.65L297.59 117.63L298.38 117.66L299.18 117.73L299.98 117.83L300.78 117.98L301.58 118.17L302.38 118.39L303.19 118.66L303.99 118.96L304.79 119.3L305.6 119.68L306.4 120.1L307.21 120.56L308.01 121.05L308.81 121.57L309.61 122.14L310.41 122.74L311.21 123.37L312 124.04L312.8 124.75L313.59 125.49L314.38 126.26L315.16 127.07L315.94 127.91L316.72 128.78L317.5 129.69L318.3 128.74L319.1 127.76L319.87 126.75L320.63 125.72L321.37 124.66L322.09 123.58L322.81 122.49L323.51 121.37L324.19 120.24L324.87 119.09L325.54 117.92L326.2 116.74L326.85 115.55L327.49 114.35L328.13 113.14L328.76 111.92L329.39 110.7L330.01 109.47L330.63 108.24L331.25 107L331.87 105.77L332.49 104.53L333.12 103.3L333.74 102.07L334.37 100.85L335 99.63L335.64 98.42L336.28 97.22L336.93 96.03L337.59 94.86L338.26 93.69L338.94 92.54L339.63 91.41L340.33 90.3L341.04 89.2L341.77 88.13L342.51 87.07L343.27 86.04L344.05 85.04L344.84 84.06L344.2 85.69L343.66 87.34L343.19 89.01L342.8 90.7L342.48 92.4L342.22 94.11L342.01 95.83L341.85 97.56L341.74 99.3L341.66 101.05L341.62 102.81L341.6 104.57L341.59 106.33L341.59 108.1L341.6 109.87L341.61 111.63L341.61 113.39L341.59 115.16L341.55 116.91L341.49 118.66L341.38 120.4L341.24 122.14L341.05 123.86L340.81 125.57L340.51 127.27L340.14 128.96L339.7 130.63L339.17 132.28L338.57 133.91L337.87 135.53L337.07 137.12L336.16 138.7L335.15 140.24L334.01 141.77L332.76 143.27L331.37 144.73L329.84 146.18L328.17 147.59L326.35 148.96L324.38 150.31L326.88 168.28L324.84 170.94L324.8 171.32L324.77 171.7L324.73 172.08L324.7 172.46L324.66 172.83L324.62 173.21L324.58 173.59L324.54 173.97L324.5 174.35L324.46 174.72L324.42 175.1L324.38 175.48L324.34 175.85L324.3 176.23L324.25 176.61L324.21 176.98L324.16 177.36L324.12 177.74L324.07 178.11L324.03 178.49L323.98 178.86L323.93 179.24L323.88 179.61L323.83 179.99L323.79 180.36L323.73 180.73L323.68 181.11L323.63 181.48L323.58 181.85L323.53 182.23L323.47 182.6L323.42 182.97L323.37 183.34L323.31 183.72L323.25 184.09L323.2 184.46L323.14 184.83L323.08 185.2L323.02 185.57L322.97 185.94L323.87 186.25L324.77 186.53L325.66 186.78L326.54 187L327.4 187.19L328.26 187.37L329.12 187.52L329.96 187.66L330.8 187.79L331.63 187.9L332.45 188.01L333.27 188.11L334.09 188.21L334.9 188.32L335.71 188.42L336.52 188.54L337.33 188.66L338.13 188.8L338.93 188.95L339.74 189.12L340.54 189.31L341.35 189.52L342.15 189.76L342.96 190.04L343.77 190.34L344.59 190.68L345.41 191.06L346.23 191.48L347.06 191.94L347.9 192.45L348.74 193.01L349.59 193.63L350.45 194.3L351.31 195.02L352.19 195.81L353.07 196.67L353.96 197.59L354.87 198.58L355.79 199.64L356.72 200.78L357.32 200.65L357.92 200.49L358.52 200.29L359.12 200.06L359.72 199.8L360.32 199.5L360.93 199.18L361.53 198.83L362.13 198.46L362.73 198.06L363.32 197.63L363.92 197.19L364.51 196.72L365.11 196.23L365.7 195.72L366.28 195.19L366.87 194.64L367.45 194.08L368.02 193.5L368.6 192.91L369.17 192.31L369.73 191.69L370.29 191.07L370.85 190.43L371.4 189.79L371.95 189.14L372.49 188.49L373.02 187.83L373.55 187.17L374.08 186.5L374.59 185.84L375.1 185.17L375.6 184.51L376.1 183.85L376.59 183.19L377.07 182.54L377.54 181.89L378 181.25L378.46 180.62L378.91 180L378.62 179.41L378.35 178.83L378.1 178.24L377.86 177.66L377.63 177.07L377.41 176.49L377.2 175.92L377.01 175.34L376.82 174.77L376.65 174.21L376.49 173.65L376.34 173.1L376.19 172.55L376.06 172.01L375.94 171.48L375.82 170.95L375.71 170.44L375.61 169.94L375.52 169.44L375.44 168.96L375.36 168.49L375.29 168.03L375.22 167.58L375.16 167.15L375.11 166.73L375.06 166.32L375.01 165.93L374.97 165.55L374.94 165.2L374.9 164.85L374.87 164.53L374.85 164.22L374.82 163.94L374.8 163.67L374.78 163.42L374.76 163.19L374.74 162.99L374.72 162.8L374.7 162.64L374.69 162.5L374.6 162.36L374.57 162.21L374.61 162.06L374.69 161.91L374.83 161.76L375.02 161.61L375.25 161.45L375.54 161.3L375.86 161.15L376.23 161L376.63 160.86L377.08 160.73L377.56 160.59L378.07 160.47L378.61 160.36L379.18 160.25L379.78 160.15L380.4 160.07L381.04 160L381.71 159.94L382.39 159.89L383.08 159.86L383.79 159.84L384.51 159.85L385.24 159.87L385.98 159.9L386.72 159.96L387.46 160.04L388.2 160.14L388.95 160.27L389.68 160.41L390.42 160.59L391.14 160.78L391.85 161.01L392.55 161.26L393.23 161.54L393.9 161.85L394.55 162.19L395.18 162.57L395.78 162.97L422.5 63.12L458.13 34.06L457.66 76.88L416.88 168.91ZM313.13 606.55L421.88 509.85L421.56 498.91L314.38 595.45L313.13 606.55ZM311.41 605.3L311.88 595.8L143.75 529.85L144.38 538.45L311.41 605.3ZM310.63 573.45L176.09 524.05L176.41 497.5L147.34 527.95L313.28 592.35L418.28 498.6L391.88 485.62L392.34 503.45L310.63 573.45ZM204.22 506.7L199.84 487.35L187.81 477.03L201.41 463.12L202.34 462.5L191.25 477.35L201.56 484.69L217.97 479.85L216.72 471.72L227.19 460.16L218.75 472.81L220.78 478.12L240.16 465.16L239.84 466.25L220 481.41L202.5 486.41L206.09 503.9L216.88 508.1L216.88 508.75L206.41 507.95L182.03 522.65L305.63 567.8L300.47 556.7L260.31 544.85L260 544.2L277.03 548.3L273.28 535.15L273.59 534.2L278.75 548.45L300.94 554.2L303.59 540.15L288.44 528.1L278.28 518.45L267.5 523.6L267.19 523.1L266.82 523.31L266.45 523.52L266.07 523.74L265.69 523.96L265.31 524.18L264.93 524.42L264.54 524.65L264.15 524.89L263.77 525.12L263.38 525.36L263 525.6L262.62 525.85L262.24 526.09L261.87 526.33L261.5 526.56L261.13 526.8L260.77 527.03L260.42 527.26L260.08 527.49L259.74 527.71L259.42 527.93L259.1 528.14L258.79 528.35L258.5 528.54L258.22 528.73L257.95 528.92L257.69 529.09L257.45 529.26L257.22 529.41L257.01 529.55L256.82 529.69L256.64 529.81L256.48 529.92L256.34 530.02L256.22 530.1L256.12 530.17L256.04 530.23L255.98 530.27L255.95 530.29L255.94 530.3L255.31 529.2L255.32 529.19L255.36 529.16L255.41 529.1L255.49 529.03L255.59 528.93L255.71 528.82L255.85 528.69L256 528.55L256.17 528.39L256.36 528.21L256.57 528.02L256.79 527.82L257.03 527.61L257.27 527.38L257.54 527.15L257.81 526.91L258.09 526.65L258.39 526.4L258.69 526.13L259.01 525.86L259.33 525.59L259.66 525.31L259.99 525.03L260.33 524.75L260.68 524.47L261.03 524.19L261.38 523.91L261.74 523.63L262.1 523.35L262.46 523.08L262.82 522.82L263.17 522.56L263.53 522.3L263.89 522.06L264.24 521.82L264.59 521.59L264.93 521.38L265.27 521.17L265.61 520.98L265.94 520.8L261.09 511.7L247.34 516.25L246.88 516.1L261.88 509.55L269.06 520.45L276.56 516.4L275.63 500L263.59 495L277.19 498.44L278.13 515.15L290.16 524.05L300.47 499.06L292.03 480.78L299.22 465.62L294.22 481.1L302.5 499.37L291.09 527.05L306.72 539.85L302.34 556.25L308.91 565.6L308.28 424.06L183.44 372.66L180.16 517.05L204.22 506.7ZM312.19 559.2L322.81 542.8L325.16 521.7L336.41 507.35L321.25 474.06L336.72 501.9L341.09 486.56L341.72 486.87L339.06 506.1L339.53 507.05L327.03 522.2L326.88 540.45L340 533.1L359.53 504.55L360.31 504.7L343.13 532.95L342.97 533.1L342.81 533.45L325.16 543.75L316.41 563.3L386.41 502.5L374.84 493.91L363.75 488.13L364.53 487.81L374.84 491.41L375.16 475L374.53 474.37L374.53 474.22L367.66 465.62L375 472.03L379.84 448.12L380.47 447.97L377.03 473.75L377.5 474.22L377.19 492.35L387.66 497.97L385.94 352.35L312.03 424.37L312.19 559.2ZM260.33 321.5L259.4 321.87L258.47 322.24L257.54 322.61L256.61 322.99L255.69 323.38L254.76 323.77L253.84 324.16L252.91 324.56L251.99 324.97L251.07 325.39L250.14 325.82L249.22 326.26L248.31 326.7L247.39 327.16L246.47 327.62L245.56 328.1L244.64 328.59L243.73 329.09L242.82 329.61L241.91 330.14L241.01 330.68L240.1 331.24L239.2 331.82L238.3 332.41L237.4 333.01L236.5 333.64L235.61 334.28L234.72 334.94L233.83 335.61L232.94 336.31L232.05 337.03L231.17 337.77L230.29 338.53L229.41 339.31L228.54 340.11L227.67 340.93L226.8 341.78L225.94 342.66L225.94 342.49L225.95 342.33L225.95 342.17L225.96 342L225.97 341.84L225.97 341.68L225.98 341.52L225.98 341.36L225.99 341.19L225.99 341.03L226 340.87L226 340.71L226 340.55L226.01 340.39L226.01 340.23L226.01 340.07L226.01 339.91L226.02 339.74L226.02 339.58L226.02 339.42L226.02 339.26L226.02 339.1L226.02 338.94L226.02 338.79L226.02 338.63L226.01 338.47L226.01 338.31L226.01 338.15L226.01 337.99L226 337.83L226 337.67L225.99 337.51L225.99 337.36L225.98 337.2L225.98 337.04L225.97 336.88L225.96 336.72L225.95 336.57L225.94 336.41L225.94 336.25L186.41 370.47L308.13 419.06L384.22 351.1L321.88 326.56L321.88 326.71L321.89 326.87L321.9 327.04L321.91 327.21L321.92 327.39L321.92 327.57L321.93 327.76L321.94 327.95L321.95 328.15L321.96 328.35L321.97 328.55L321.98 328.76L321.99 328.97L322 329.18L322.01 329.39L322.02 329.61L322.03 329.82L322.04 330.04L322.05 330.26L322.06 330.48L322.07 330.7L322.08 330.92L322.09 331.14L322.11 331.35L322.12 331.57L322.13 331.78L322.14 331.99L322.16 332.2L322.17 332.41L322.18 332.61L322.2 332.81L322.21 333L322.23 333.19L322.24 333.38L322.26 333.56L322.27 333.73L322.29 333.9L322.31 334.07L322.32 334.22L322.34 334.37L323.54 334.86L324.71 335.34L325.87 335.82L327 336.3L328.12 336.78L329.21 337.26L330.28 337.75L331.32 338.24L332.35 338.73L333.35 339.24L334.32 339.75L335.28 340.28L336.21 340.81L337.11 341.36L337.99 341.92L338.84 342.5L339.67 343.1L340.47 343.71L341.25 344.34L342 344.99L342.72 345.67L343.42 346.36L344.08 347.08L344.72 347.83L345.33 348.61L345.91 349.41L346.46 350.24L346.98 351.11L347.47 352L347.93 352.93L348.36 353.9L348.76 354.9L349.13 355.94L349.46 357.02L349.76 358.14L350.03 359.3L350.27 360.5L350.47 361.74L350.64 363.04L350.78 364.37L350.6 365.21L350.38 366.02L350.13 366.83L349.85 367.63L349.54 368.42L349.19 369.19L348.82 369.96L348.42 370.71L347.99 371.46L347.54 372.19L347.06 372.92L346.55 373.64L346.01 374.35L345.45 375.05L344.87 375.74L344.26 376.42L343.63 377.1L342.98 377.77L342.31 378.44L341.61 379.09L340.9 379.74L340.16 380.39L339.41 381.03L338.64 381.66L337.85 382.29L337.05 382.91L336.22 383.53L335.39 384.14L334.53 384.75L333.67 385.35L332.79 385.96L331.9 386.55L330.99 387.15L330.08 387.74L329.15 388.33L328.21 388.92L327.27 389.5L326.31 390.09L325.35 390.67L324.38 391.25L324.06 390.78L318.44 403.6L317.95 403.95L317.44 404.3L316.92 404.64L316.37 404.96L315.82 405.27L315.24 405.56L314.65 405.84L314.05 406.1L313.43 406.34L312.8 406.56L312.16 406.76L311.5 406.93L310.84 407.08L310.16 407.2L309.48 407.3L308.79 407.36L308.09 407.4L307.38 407.4L306.67 407.37L305.95 407.31L305.22 407.21L304.5 407.07L303.77 406.9L303.03 406.68L302.3 406.43L301.56 406.13L300.83 405.79L300.09 405.4L299.35 404.97L298.62 404.48L297.89 403.95L297.16 403.37L296.44 402.74L295.72 402.05L295.01 401.3L294.31 400.51L293.61 399.65L292.92 398.73L292.23 397.76L291.56 396.72L290.23 396.62L288.9 396.52L287.58 396.43L286.26 396.34L284.94 396.24L283.63 396.15L282.32 396.06L281.02 395.97L279.73 395.88L278.44 395.79L277.16 395.69L275.88 395.59L274.61 395.49L273.35 395.39L272.09 395.28L270.85 395.17L269.61 395.05L268.38 394.92L267.16 394.79L265.94 394.66L264.74 394.51L263.55 394.36L262.36 394.2L261.19 394.03L260.03 393.85L258.88 393.66L257.73 393.47L256.61 393.26L255.49 393.03L254.38 392.8L253.29 392.55L252.21 392.3L251.14 392.02L250.09 391.74L249.05 391.44L248.02 391.12L247.01 390.79L246.01 390.44L245.03 390.07L244.06 389.69L242.42 389.02L240.8 388.33L239.21 387.61L237.65 386.87L236.12 386.11L234.63 385.33L233.18 384.52L231.76 383.7L230.39 382.85L229.07 381.98L227.79 381.08L226.57 380.16L225.39 379.22L224.28 378.26L223.22 377.28L222.22 376.27L221.29 375.24L220.42 374.19L219.62 373.11L218.89 372.01L218.24 370.89L217.66 369.74L217.16 368.58L216.74 367.38L216.4 366.17L216.15 364.93L215.99 363.67L215.92 362.39L215.94 361.08L216.06 359.75L216.28 358.4L216.6 357.02L217.03 355.62L217.56 354.2L218.2 352.75L218.95 351.28L219.82 349.78L220.8 348.26L221.9 346.72L223.13 345.16L223.82 344.67L224.56 344.19L225.34 343.74L226.16 343.3L227.02 342.88L227.91 342.47L228.84 342.08L229.81 341.7L230.81 341.33L231.85 340.98L232.93 340.64L234.03 340.31L235.17 339.99L236.34 339.68L237.55 339.38L238.78 339.09L240.04 338.81L241.34 338.54L242.66 338.28L244.01 338.02L245.39 337.77L246.79 337.52L248.22 337.28L249.67 337.05L251.15 336.82L252.66 336.59L254.18 336.36L255.73 336.14L257.3 335.92L258.89 335.7L260.5 335.48L262.13 335.26L263.78 335.04L265.44 334.82L267.13 334.6L268.83 334.37L270.54 334.15L272.27 333.91L274.02 333.68L275.78 333.44L275.65 333.01L275.52 332.58L275.37 332.15L275.21 331.72L275.03 331.29L274.85 330.86L274.65 330.43L274.44 330.01L274.22 329.59L273.99 329.17L273.75 328.76L273.5 328.35L273.23 327.95L272.95 327.55L272.67 327.16L272.37 326.78L272.06 326.4L271.74 326.03L271.41 325.67L271.07 325.31L270.72 324.97L270.36 324.63L269.99 324.31L269.61 323.99L269.22 323.69L268.82 323.4L268.4 323.12L267.98 322.85L267.55 322.59L267.11 322.35L266.66 322.12L266.2 321.91L265.73 321.71L265.25 321.53L264.76 321.36L264.26 321.21L263.76 321.08L263.24 320.96L262.72 320.86L262.19 320.78L261.26 321.14L260.33 321.5ZM281.76 278.52L281.7 279.42L281.65 280.32L281.6 281.22L281.55 282.12L281.51 283.02L281.47 283.92L281.43 284.82L281.4 285.72L281.36 286.62L281.34 287.52L281.31 288.42L281.29 289.32L281.28 290.22L281.26 291.11L281.25 292.01L281.25 292.9L281.25 293.8L281.25 294.69L281.26 295.59L281.27 296.48L281.29 297.37L281.31 298.26L281.34 299.15L281.37 300.04L281.4 300.93L281.44 301.81L281.49 302.7L281.54 303.58L281.59 304.47L281.65 305.35L281.72 306.23L281.79 307.11L281.87 307.98L281.95 308.86L282.04 309.73L282.13 310.61L282.23 311.48L282.34 312.34L282.02 312.51L281.68 312.67L281.34 312.84L280.99 313L280.64 313.17L280.28 313.34L279.91 313.5L279.53 313.67L279.15 313.84L278.76 314.01L278.37 314.19L277.97 314.36L277.57 314.53L277.17 314.7L276.76 314.87L276.35 315.04L275.94 315.21L275.53 315.38L275.12 315.55L274.71 315.72L274.29 315.89L273.88 316.05L273.47 316.22L273.05 316.38L272.65 316.55L272.24 316.71L271.83 316.87L271.43 317.03L271.03 317.18L270.64 317.34L270.25 317.49L269.87 317.64L269.49 317.79L269.12 317.93L268.75 318.08L268.39 318.22L268.04 318.35L267.69 318.49L267.36 318.62L267.03 318.75L267.88 319.08L268.68 319.43L269.44 319.81L270.16 320.22L270.83 320.66L271.47 321.11L272.07 321.59L272.64 322.09L273.17 322.61L273.68 323.15L274.15 323.71L274.59 324.29L275.01 324.88L275.4 325.49L275.76 326.11L276.11 326.75L276.43 327.4L276.74 328.05L277.03 328.72L277.3 329.4L277.56 330.08L277.81 330.77L278.05 331.47L278.28 332.17L278.51 332.88L278.73 333.58L278.94 334.29L279.16 335L279.37 335.71L279.58 336.41L279.8 337.11L280.02 337.81L280.25 338.51L280.49 339.19L280.74 339.87L281 340.54L281.27 341.21L281.56 341.86L281.86 342.5L282.19 343.13L280.27 343.01L278.38 342.92L276.52 342.86L274.68 342.82L272.87 342.81L271.09 342.82L269.33 342.87L267.61 342.94L265.92 343.04L264.26 343.17L262.64 343.33L261.05 343.53L259.5 343.75L257.99 344.01L256.53 344.3L255.1 344.62L253.71 344.98L252.37 345.38L251.08 345.81L249.83 346.27L248.64 346.77L247.49 347.32L246.39 347.89L245.35 348.51L244.36 349.17L243.42 349.87L242.54 350.61L241.72 351.39L240.96 352.21L240.26 353.07L239.62 353.98L239.04 354.93L238.53 355.93L238.09 356.97L237.71 358.06L237.4 359.2L237.16 360.38L236.99 361.61L236.9 362.89L236.88 364.22L236.87 364.93L236.92 365.6L237.01 366.23L237.14 366.82L237.32 367.38L237.54 367.9L237.8 368.39L238.09 368.84L238.42 369.26L238.78 369.65L239.17 370.02L239.59 370.35L240.04 370.66L240.51 370.94L241 371.2L241.52 371.44L242.05 371.65L242.6 371.85L243.16 372.02L243.73 372.18L244.32 372.32L244.91 372.45L245.51 372.56L246.11 372.66L246.72 372.75L247.32 372.83L247.93 372.9L248.53 372.96L249.12 373.02L249.71 373.07L250.28 373.12L250.85 373.17L251.4 373.21L251.93 373.25L252.45 373.3L252.94 373.35L253.42 373.4L253.87 373.46L254.29 373.52L254.69 373.6L285.78 351.56L287.66 352.03L287.28 350.6L286.93 349.18L286.62 347.76L286.34 346.35L286.08 344.94L285.86 343.53L285.67 342.12L285.51 340.72L285.38 339.32L285.27 337.92L285.2 336.52L285.15 335.13L285.12 333.74L285.12 332.36L285.15 330.97L285.2 329.59L285.28 328.21L285.38 326.84L285.51 325.46L285.65 324.09L285.82 322.72L286.01 321.35L286.22 319.99L286.45 318.62L286.7 317.26L286.98 315.9L287.27 314.54L287.57 313.19L287.9 311.83L288.24 310.48L288.6 309.13L288.98 307.78L289.37 306.43L289.77 305.08L290.2 303.74L290.63 302.39L291.08 301.05L291.54 299.71L292.01 298.37L292.5 297.03L292.97 297.97L292.53 299.4L292.12 300.84L291.72 302.26L291.34 303.69L290.98 305.11L290.64 306.53L290.31 307.95L290 309.37L289.71 310.78L289.44 312.19L289.19 313.6L288.95 315L288.74 316.41L288.54 317.81L288.36 319.2L288.21 320.6L288.07 321.99L287.95 323.38L287.86 324.77L287.78 326.16L287.72 327.54L287.69 328.92L287.67 330.3L287.68 331.68L287.71 333.05L287.75 334.43L287.82 335.8L287.92 337.17L288.03 338.53L288.17 339.9L288.32 341.26L288.51 342.62L288.71 343.98L288.93 345.34L289.18 346.69L289.46 348.05L289.75 349.4L290.07 350.75L290.41 352.09L290.78 353.44L302.81 355.78L297.03 391.1L296.75 391.48L296.53 391.9L296.38 392.34L296.29 392.81L296.26 393.29L296.29 393.8L296.37 394.31L296.51 394.84L296.7 395.38L296.94 395.92L297.22 396.47L297.56 397.01L297.93 397.55L298.34 398.09L298.79 398.61L299.28 399.12L299.8 399.62L300.35 400.1L300.93 400.55L301.54 400.98L302.17 401.39L302.83 401.76L303.5 402.1L304.2 402.4L304.91 402.67L305.63 402.89L306.36 403.06L307.11 403.19L307.86 403.26L308.61 403.29L309.37 403.25L310.13 403.15L310.88 402.99L311.64 402.77L312.38 402.47L313.12 402.1L313.84 401.66L314.56 401.14L315.25 400.53L315.94 399.85L334.06 363.28L332.18 361.6L330.45 359.92L328.87 358.24L327.42 356.56L326.1 354.88L324.9 353.2L323.83 351.52L322.87 349.84L322.01 348.16L321.26 346.48L320.61 344.8L320.04 343.12L319.56 341.44L319.16 339.76L318.83 338.08L318.57 336.4L318.37 334.72L318.22 333.05L318.13 331.37L318.08 329.69L318.07 328.01L318.09 326.33L318.14 324.65L318.21 322.97L318.29 321.29L318.39 319.61L318.48 317.93L318.58 316.25L318.67 314.57L318.75 312.9L318.8 311.22L318.83 309.54L318.83 307.86L318.8 306.18L318.72 304.5L318.59 302.82L318.41 301.14L318.18 299.46L317.87 297.78L317.5 296.09L317.5 295.62L317.03 284.06L316.25 284.33L315.44 284.55L314.63 284.73L313.8 284.87L312.95 284.98L312.1 285.05L311.23 285.09L310.35 285.09L309.46 285.06L308.56 285L307.65 284.92L306.74 284.8L305.82 284.66L304.89 284.5L303.96 284.31L303.03 284.11L302.09 283.88L301.15 283.63L300.21 283.37L299.27 283.1L298.33 282.81L297.4 282.51L296.46 282.19L295.53 281.87L294.61 281.54L293.69 281.21L292.77 280.87L291.86 280.53L290.96 280.18L290.08 279.84L289.2 279.5L288.33 279.16L287.47 278.82L286.62 278.49L285.79 278.17L284.98 277.85L284.18 277.55L283.39 277.26L282.62 276.98L281.88 276.72L281.81 277.62L281.76 278.52ZM269.93 334.87L268.21 335.12L266.52 335.38L264.85 335.63L263.2 335.89L261.58 336.16L259.99 336.42L258.42 336.69L256.88 336.96L255.37 337.24L253.88 337.52L252.43 337.8L251 338.09L249.59 338.38L248.22 338.68L246.88 338.97L245.56 339.28L244.28 339.58L243.02 339.89L241.8 340.2L240.6 340.52L239.44 340.84L238.31 341.17L237.21 341.5L236.15 341.84L235.11 342.18L234.11 342.52L233.15 342.87L232.22 343.22L231.32 343.58L230.46 343.94L229.63 344.31L228.83 344.68L228.08 345.06L227.36 345.45L226.67 345.83L226.02 346.23L225.41 346.63L224.84 347.03L223.59 348.26L222.48 349.49L221.52 350.72L220.7 351.96L220.02 353.2L219.46 354.45L219.03 355.69L218.72 356.92L218.53 358.16L218.45 359.39L218.48 360.61L218.61 361.83L218.84 363.04L219.16 364.23L219.57 365.42L220.06 366.59L220.64 367.75L221.28 368.9L222 370.03L222.78 371.14L223.63 372.23L224.53 373.3L225.48 374.35L226.47 375.38L227.51 376.38L228.59 377.36L229.7 378.31L230.84 379.24L232 380.13L233.18 380.99L234.37 381.82L235.58 382.62L236.79 383.38L238 384.11L239.2 384.8L240.4 385.45L241.58 386.07L242.74 386.64L243.88 387.17L245 387.66L245.88 388L246.8 388.32L247.75 388.63L248.73 388.91L249.74 389.17L250.77 389.42L251.84 389.65L252.92 389.87L254.04 390.07L255.17 390.25L256.33 390.42L257.51 390.58L258.7 390.72L259.92 390.85L261.15 390.98L262.39 391.09L263.65 391.19L264.93 391.28L266.21 391.36L267.51 391.44L268.82 391.51L270.13 391.57L271.45 391.63L272.77 391.68L274.1 391.73L275.44 391.78L276.77 391.82L278.11 391.86L279.44 391.9L280.78 391.95L282.11 391.99L283.44 392.03L284.76 392.07L286.07 392.12L287.38 392.17L288.67 392.23L289.96 392.29L291.23 392.35L292.5 392.42L293.75 392.5L298.91 357.97L287.19 353.6L256.25 377.35L255.07 377.18L253.91 377L252.79 376.82L251.68 376.62L250.61 376.42L249.56 376.2L248.54 375.97L247.54 375.74L246.58 375.49L245.64 375.23L244.72 374.97L243.84 374.69L242.98 374.4L242.15 374.1L241.35 373.79L240.58 373.46L239.84 373.13L239.12 372.78L238.44 372.43L237.78 372.06L237.16 371.68L236.56 371.29L236 370.89L235.46 370.48L234.96 370.05L234.49 369.61L234.05 369.16L233.64 368.7L233.26 368.23L232.91 367.74L232.6 367.24L232.31 366.73L232.06 366.21L231.85 365.67L231.66 365.12L231.51 364.56L231.39 363.99L231.31 363.4L231.26 362.8L231.25 362.19L232.6 360.27L233.96 358.45L235.32 356.75L236.68 355.15L238.04 353.65L239.4 352.25L240.76 350.95L242.11 349.75L243.47 348.63L244.82 347.6L246.16 346.65L247.5 345.79L248.84 345L250.17 344.29L251.5 343.65L252.82 343.08L254.13 342.58L255.44 342.13L256.74 341.75L258.03 341.42L259.31 341.15L260.58 340.93L261.84 340.75L263.09 340.62L264.33 340.53L265.56 340.48L266.78 340.46L267.98 340.48L269.17 340.52L270.35 340.59L271.51 340.68L272.66 340.79L273.79 340.92L274.91 341.06L276.01 341.22L277.09 341.38L278.16 341.54L279.21 341.71L280.23 341.87L281.25 342.03L281.17 341.86L281.07 341.69L280.96 341.52L280.83 341.35L280.68 341.17L280.52 340.99L280.34 340.81L280.15 340.62L279.95 340.43L279.74 340.25L279.52 340.06L279.28 339.86L279.05 339.67L278.8 339.48L278.55 339.28L278.29 339.08L278.03 338.89L277.77 338.69L277.51 338.49L277.24 338.29L276.98 338.09L276.72 337.89L276.46 337.69L276.2 337.49L275.95 337.29L275.71 337.09L275.47 336.89L275.24 336.69L275.01 336.49L274.8 336.29L274.6 336.09L274.41 335.89L274.23 335.7L274.07 335.51L273.92 335.31L273.79 335.12L273.67 334.93L273.57 334.74L273.49 334.56L273.44 334.37L271.67 334.62L269.93 334.87ZM323.22 339.56L323.46 340.65L323.72 341.75L324 342.83L324.31 343.91L324.65 344.98L325.01 346.05L325.41 347.1L325.83 348.15L326.28 349.19L326.77 350.23L327.29 351.25L327.85 352.27L328.45 353.27L329.08 354.27L329.75 355.26L330.47 356.24L331.22 357.21L332.02 358.17L332.87 359.12L333.76 360.06L334.69 360.99L335.68 361.9L336.72 362.81L325.78 387.19L327.14 386.29L328.48 385.36L329.8 384.41L331.09 383.44L332.34 382.45L333.57 381.45L334.76 380.43L335.92 379.41L337.04 378.38L338.11 377.34L339.15 376.31L340.13 375.27L341.07 374.24L341.96 373.22L342.8 372.2L343.59 371.2L344.31 370.21L344.98 369.24L345.59 368.28L346.13 367.35L346.61 366.45L347.02 365.57L347.35 364.72L347.62 363.91L347.81 363.12L347.63 361.51L347.32 359.96L346.91 358.46L346.39 357.02L345.77 355.63L345.06 354.3L344.26 353.01L343.39 351.78L342.44 350.6L341.43 349.46L340.35 348.38L339.23 347.33L338.06 346.34L336.85 345.38L335.6 344.47L334.33 343.59L333.05 342.76L331.74 341.96L330.43 341.2L329.12 340.48L327.82 339.79L326.53 339.13L325.26 338.51L324.02 337.91L322.81 337.35L323.01 338.45L323.22 339.56ZM218.13 205.57L217.47 207.75L216.85 209.94L216.26 212.13L215.71 214.34L215.18 216.55L214.69 218.77L214.23 221L213.8 223.23L213.41 225.47L213.04 227.71L212.71 229.96L212.4 232.21L212.13 234.47L211.89 236.73L211.68 238.99L211.49 241.25L211.34 243.52L211.22 245.78L211.13 248.04L211.07 250.31L211.04 252.57L211.03 254.83L211.06 257.09L211.12 259.35L211.2 261.6L211.31 263.85L211.45 266.09L211.62 268.33L211.82 270.56L212.05 272.79L212.3 275.01L212.58 277.22L212.89 279.43L213.23 281.62L213.59 283.81L213.98 285.99L214.4 288.15L214.84 290.31L215.24 291.42L215.67 292.54L216.1 293.66L216.55 294.8L217.01 295.94L217.48 297.1L217.97 298.26L218.45 299.43L218.95 300.6L219.44 301.78L219.94 302.98L220.44 304.17L220.94 305.38L221.43 306.59L221.92 307.81L222.41 309.04L222.89 310.27L223.35 311.51L223.81 312.76L224.25 314.01L224.68 315.27L225.1 316.54L225.49 317.81L225.87 319.08L226.23 320.36L226.56 321.65L226.87 322.94L227.16 324.24L227.41 325.54L227.64 326.85L227.84 328.16L228 329.48L228.13 330.8L228.23 332.12L228.29 333.45L228.31 334.79L228.29 336.12L228.22 337.46L228.12 338.81L227.97 340.16L228.9 338.84L229.88 337.58L230.91 336.38L231.97 335.24L233.08 334.14L234.22 333.1L235.39 332.1L236.6 331.15L237.85 330.24L239.12 329.38L240.41 328.55L241.73 327.76L243.08 327L244.44 326.28L245.83 325.59L247.23 324.92L248.64 324.28L250.07 323.67L251.51 323.07L252.96 322.5L254.41 321.94L255.86 321.4L257.32 320.87L258.78 320.35L260.24 319.84L261.69 319.33L263.14 318.83L264.58 318.34L266.01 317.84L267.42 317.34L268.83 316.83L270.21 316.32L271.58 315.8L272.93 315.27L274.25 314.72L275.55 314.16L276.83 313.58L278.07 312.98L279.28 312.36L280.47 311.72L280.1 309.85L279.78 307.95L279.49 306.01L279.24 304.05L279.02 302.05L278.84 300.03L278.69 297.99L278.57 295.92L278.48 293.84L278.42 291.73L278.39 289.6L278.38 287.46L278.4 285.3L278.44 283.14L278.5 280.96L278.58 278.77L278.69 276.57L278.81 274.37L278.95 272.16L279.11 269.95L279.28 267.74L279.46 265.53L279.66 263.32L279.86 261.12L280.08 258.92L280.3 256.73L280.53 254.55L280.77 252.38L281.01 250.22L281.25 248.08L281.5 245.95L281.75 243.84L281.99 241.75L282.24 239.68L282.48 237.64L282.71 235.62L282.95 233.62L283.17 231.65L283.38 229.72L283.59 227.81L282.95 227.64L282.29 227.48L281.63 227.32L280.96 227.17L280.28 227.03L279.59 226.88L278.9 226.74L278.2 226.61L277.49 226.48L276.77 226.35L276.05 226.22L275.32 226.09L274.58 225.97L273.84 225.85L273.1 225.73L272.35 225.6L271.59 225.48L270.83 225.36L270.07 225.24L269.31 225.12L268.54 224.99L267.77 224.87L267 224.74L266.22 224.61L265.45 224.47L264.67 224.34L263.89 224.2L263.12 224.05L262.34 223.9L261.56 223.75L260.79 223.59L260.01 223.43L259.24 223.26L258.47 223.08L257.7 222.9L256.94 222.71L256.17 222.51L255.41 222.31L254.66 222.1L253.91 221.88L253.01 221.6L252.11 221.3L251.2 221L250.29 220.67L249.39 220.33L248.48 219.98L247.57 219.61L246.65 219.22L245.74 218.83L244.83 218.42L243.92 217.99L243.01 217.55L242.1 217.1L241.19 216.64L240.29 216.17L239.39 215.68L238.49 215.18L237.59 214.68L236.7 214.16L235.81 213.63L234.92 213.08L234.05 212.53L233.17 211.97L232.3 211.4L231.44 210.82L230.59 210.24L229.74 209.64L228.9 209.04L228.07 208.42L227.24 207.8L226.42 207.18L225.62 206.54L224.82 205.9L224.03 205.25L223.25 204.6L222.49 203.94L221.73 203.27L220.98 202.6L220.25 201.93L219.53 201.25L218.81 203.41L218.13 205.57ZM268.81 183.72L267.91 183.82L267.01 183.96L266.12 184.12L265.23 184.32L264.35 184.56L263.49 184.83L262.64 185.13L261.81 185.48L261 185.86L260.21 186.29L259.44 186.75L258.69 187.26L257.98 187.82L257.29 188.42L256.64 189.07L256.02 189.76L255.44 190.51L254.89 191.31L254.39 192.16L253.93 193.06L253.52 194.02L253.15 195.04L252.83 196.11L252.56 197.24L252.35 198.43L252.19 199.69L252.09 201L252.05 202.38L252.08 203.83L252.17 205.34L252.32 206.92L252.55 208.57L252.84 210.29L253.21 212.09L253.66 213.95L254.18 215.89L254.78 217.91L255.47 220L256.22 220.24L256.97 220.47L257.72 220.69L258.48 220.91L259.24 221.11L260 221.31L260.76 221.5L261.53 221.69L262.29 221.87L263.06 222.04L263.83 222.21L264.6 222.37L265.37 222.52L266.14 222.67L266.92 222.82L267.69 222.96L268.47 223.1L269.25 223.24L270.03 223.37L270.81 223.5L271.59 223.63L272.37 223.76L273.15 223.88L273.94 224L274.72 224.13L275.51 224.25L276.29 224.37L277.08 224.49L277.87 224.61L278.66 224.74L279.45 224.86L280.23 224.99L281.02 225.11L281.81 225.25L282.61 225.38L283.4 225.51L284.19 225.65L284.98 225.8L285.77 225.94L286.56 226.09L286.49 227.27L286.41 228.45L286.33 229.62L286.25 230.8L286.16 231.98L286.06 233.16L285.97 234.34L285.87 235.52L285.76 236.7L285.66 237.89L285.55 239.07L285.44 240.26L285.33 241.44L285.21 242.63L285.09 243.82L284.97 245L284.85 246.19L284.73 247.38L284.61 248.57L284.49 249.76L284.36 250.95L284.24 252.14L284.11 253.33L283.99 254.52L283.86 255.71L283.74 256.91L283.62 258.1L283.5 259.29L283.37 260.48L283.26 261.68L283.14 262.87L283.02 264.06L282.91 265.25L282.8 266.44L282.69 267.64L282.58 268.83L282.48 270.02L282.38 271.21L282.28 272.4L282.19 273.59L282.97 274.11L283.78 274.62L284.61 275.11L285.46 275.6L286.33 276.07L287.22 276.54L288.12 276.99L289.04 277.43L289.97 277.85L290.92 278.27L291.88 278.66L292.85 279.05L293.83 279.42L294.82 279.77L295.82 280.1L296.83 280.42L297.84 280.72L298.86 281L299.89 281.27L300.92 281.51L301.95 281.73L302.98 281.94L304.01 282.12L305.04 282.28L306.07 282.42L307.1 282.53L308.12 282.62L309.14 282.69L310.15 282.73L311.16 282.75L312.16 282.74L313.15 282.71L314.13 282.64L315.09 282.55L316.05 282.44L317 282.29L317.93 282.11L318.84 281.91L319.74 281.67L320.63 281.41L316.41 268.91L317.06 267.83L317.69 266.75L318.32 265.66L318.94 264.57L319.54 263.47L320.14 262.37L320.73 261.26L321.32 260.16L321.9 259.05L322.48 257.93L323.06 256.82L323.64 255.71L324.22 254.6L324.81 253.49L325.39 252.39L325.99 251.28L326.59 250.19L327.19 249.09L327.81 248.01L328.44 246.93L329.08 245.86L329.73 244.79L330.4 243.74L331.09 242.69L331.79 241.66L332.51 240.64L333.25 239.63L334.01 238.63L334.8 237.65L335.61 236.68L336.44 235.72L337.3 234.79L338.19 233.87L339.11 232.96L340.06 232.08L341.04 231.22L342.05 230.37L343.1 229.55L344.19 228.75L345.31 227.97L340.47 228.75L339.08 228.43L337.8 228.11L336.64 227.77L335.57 227.43L334.6 227.08L333.73 226.72L332.95 226.35L332.25 225.97L331.64 225.58L331.11 225.18L330.65 224.78L330.26 224.36L329.94 223.94L329.69 223.51L329.49 223.07L329.35 222.62L329.26 222.17L329.22 221.7L329.22 221.23L329.26 220.74L329.34 220.25L329.44 219.75L329.58 219.25L329.74 218.73L329.92 218.21L330.12 217.68L330.32 217.13L330.54 216.59L330.76 216.03L330.98 215.46L331.2 214.89L331.41 214.31L331.61 213.72L331.79 213.12L331.95 212.52L332.09 211.91L332.2 211.28L332.29 210.66L332.33 210.02L332.34 209.37L332.88 209.22L333.41 209.07L333.95 208.91L334.49 208.76L335.03 208.61L335.57 208.46L336.11 208.3L336.65 208.15L337.19 208L337.73 207.84L338.27 207.69L338.82 207.54L339.36 207.38L339.9 207.23L340.45 207.07L340.99 206.91L341.53 206.76L342.08 206.6L342.62 206.44L343.17 206.28L343.71 206.12L344.25 205.95L344.79 205.79L345.34 205.62L345.88 205.45L346.42 205.28L346.96 205.11L347.5 204.93L348.04 204.76L348.58 204.58L349.12 204.4L349.65 204.22L350.19 204.03L350.72 203.84L351.26 203.65L351.79 203.46L352.32 203.26L352.85 203.06L353.38 202.86L353.91 202.65L352.95 201.72L352.01 200.83L351.09 200L350.19 199.22L349.32 198.49L348.46 197.81L347.61 197.17L346.79 196.58L345.97 196.02L345.18 195.51L344.39 195.03L343.62 194.59L342.85 194.18L342.1 193.8L341.35 193.46L340.62 193.14L339.88 192.84L339.16 192.58L338.44 192.33L337.72 192.1L337 191.9L336.29 191.7L335.58 191.53L334.86 191.36L334.15 191.21L333.43 191.07L332.71 190.93L331.98 190.8L331.25 190.67L330.51 190.54L329.76 190.41L329 190.28L328.23 190.14L327.45 190L326.66 189.85L325.86 189.69L325.04 189.52L324.21 189.33L323.36 189.13L322.5 188.9L322.47 189.05L322.45 189.19L322.43 189.33L322.4 189.48L322.38 189.62L322.36 189.76L322.33 189.91L322.31 190.05L322.28 190.2L322.26 190.34L322.24 190.49L322.21 190.63L322.19 190.78L322.16 190.92L322.11 191.21L322.09 191.36L322.07 191.5L322.04 191.65L322.02 191.79L321.99 191.94L321.97 192.08L321.94 192.23L321.92 192.38L321.9 192.52L321.87 192.67L321.85 192.81L321.82 192.96L321.8 193.1L321.78 193.25L321.75 193.39L321.73 193.54L321.71 193.68L321.69 193.83L321.67 193.97L321.64 194.12L321.62 194.26L321.6 194.4L321.58 194.55L321.56 194.69L320.69 195.8L319.82 196.88L318.94 197.94L318.05 198.99L317.16 200L316.26 200.99L315.36 201.95L314.45 202.89L313.54 203.79L312.61 204.66L311.68 205.5L310.75 206.3L309.8 207.07L308.85 207.8L307.88 208.49L306.91 209.14L305.93 209.75L304.94 210.32L303.94 210.84L302.93 211.31L301.91 211.74L300.88 212.12L299.84 212.45L298.78 212.72L297.72 212.94L296.64 213.11L295.55 213.22L294.45 213.28L293.34 213.27L292.21 213.21L291.07 213.08L289.92 212.89L288.75 212.63L287.57 212.31L286.37 211.92L285.16 211.46L283.93 210.93L282.69 210.33L281.43 209.65L280.16 208.9L279.3 208.44L278.49 207.95L277.72 207.45L277 206.93L276.32 206.4L275.68 205.86L275.08 205.3L274.52 204.73L274 204.15L273.52 203.55L273.07 202.95L272.66 202.33L272.28 201.71L271.94 201.07L271.62 200.43L271.34 199.78L271.09 199.13L270.86 198.46L270.66 197.8L270.49 197.12L270.34 196.45L270.21 195.77L270.1 195.08L270.02 194.39L269.96 193.71L269.91 193.02L269.89 192.33L269.88 191.64L269.88 190.95L269.9 190.26L269.93 189.57L269.98 188.89L270.03 188.21L270.1 187.53L270.17 186.86L270.25 186.2L270.34 185.53L270.43 184.88L270.53 184.23L270.63 183.59L269.72 183.64L268.81 183.72ZM379.11 185.38L378.3 186.53L377.47 187.64L376.6 188.72L375.71 189.77L374.79 190.78L373.84 191.77L372.87 192.72L371.88 193.65L370.86 194.54L369.82 195.41L368.76 196.25L367.68 197.06L366.58 197.85L365.46 198.62L364.32 199.36L363.17 200.08L362 200.78L360.82 201.46L359.63 202.12L358.42 202.75L357.2 203.38L355.97 203.98L354.74 204.57L353.49 205.14L352.24 205.7L350.98 206.24L349.72 206.77L348.45 207.29L347.18 207.8L345.91 208.3L344.64 208.79L343.36 209.27L342.09 209.74L340.82 210.21L339.55 210.67L338.29 211.13L337.03 211.58L335.78 212.03L335.71 212.47L335.62 212.92L335.51 213.37L335.39 213.84L335.26 214.3L335.11 214.77L334.96 215.25L334.81 215.72L334.65 216.2L334.5 216.67L334.35 217.15L334.21 217.62L334.08 218.09L333.96 218.55L333.85 219.01L333.77 219.46L333.7 219.9L333.66 220.33L333.65 220.75L333.66 221.16L333.71 221.56L333.79 221.94L333.91 222.31L334.07 222.66L334.27 222.99L334.52 223.31L334.82 223.6L335.17 223.88L335.57 224.13L336.03 224.36L336.55 224.57L337.13 224.75L337.78 224.9L338.5 225.03L339.28 225.13L340.14 225.2L341.08 225.24L342.1 225.24L343.19 225.22L344.38 225.15L391.09 215.47L390.58 214.91L390.1 214.37L389.66 213.84L389.25 213.32L388.87 212.82L388.52 212.34L388.2 211.86L387.91 211.4L387.64 210.95L387.4 210.51L387.18 210.09L386.98 209.67L386.81 209.27L386.66 208.87L386.52 208.48L386.41 208.1L386.31 207.73L386.23 207.36L386.16 207.01L386.11 206.65L386.07 206.31L386.04 205.97L386.03 205.63L386.02 205.3L386.02 204.97L386.02 204.65L386.04 204.33L386.06 204.01L386.08 203.69L386.1 203.37L386.13 203.06L386.16 202.74L386.18 202.42L386.21 202.11L386.23 201.79L386.24 201.47L386.25 201.14L386.26 200.82L386.26 200.49L386.25 200.15L386.43 201.04L386.65 201.91L386.91 202.77L387.2 203.62L387.54 204.45L387.9 205.27L388.3 206.08L388.72 206.87L389.18 207.65L389.67 208.42L390.18 209.18L390.72 209.92L391.29 210.65L391.88 211.37L392.49 212.07L393.13 212.77L393.78 213.45L394.45 214.12L395.14 214.78L395.85 215.43L396.57 216.07L397.31 216.7L398.06 217.31L398.82 217.92L399.59 218.51L400.37 219.1L401.16 219.67L401.95 220.23L402.75 220.79L403.56 221.33L404.36 221.87L405.17 222.39L405.98 222.9L406.79 223.41L407.6 223.9L408.4 224.39L409.2 224.87L409.99 225.34L410.78 225.8L411.56 226.25L412.32 225.72L413.04 225.16L413.72 224.57L414.35 223.94L414.94 223.29L415.48 222.61L415.99 221.9L416.45 221.17L416.88 220.42L417.27 219.65L417.62 218.86L417.93 218.06L418.21 217.24L418.46 216.4L418.67 215.56L418.85 214.71L419 213.85L419.12 212.99L419.22 212.12L419.28 211.25L419.31 210.38L419.32 209.51L419.3 208.65L419.26 207.79L419.2 206.94L419.11 206.1L419 205.26L418.88 204.44L418.73 203.64L418.56 202.85L418.38 202.08L418.18 201.33L417.96 200.6L417.73 199.89L417.48 199.21L417.23 198.56L416.96 197.93L416.68 197.34L416.39 196.78L416.09 196.25L416.56 195.94L415.07 196.12L413.61 196.26L412.19 196.37L410.8 196.44L409.45 196.48L408.13 196.49L406.84 196.46L405.59 196.41L404.37 196.32L403.19 196.21L402.04 196.06L400.91 195.89L399.82 195.69L398.77 195.47L397.74 195.22L396.74 194.94L395.77 194.64L394.83 194.32L393.92 193.98L393.03 193.61L392.18 193.22L391.35 192.82L390.55 192.39L389.77 191.95L389.02 191.48L388.3 191.01L387.6 190.51L386.93 190L386.28 189.48L385.66 188.94L385.06 188.39L384.48 187.82L383.92 187.25L383.39 186.66L382.88 186.07L382.38 185.46L381.91 184.85L381.46 184.23L381.04 183.6L380.63 182.97L379.88 184.19L379.11 185.38ZM317.68 182.29L316.3 183.02L314.93 183.82L313.56 184.67L312.18 185.56L310.78 186.47L309.36 187.39L307.91 188.31L306.43 189.21L304.91 190.07L303.35 190.89L301.73 191.65L300.05 192.33L298.31 192.92L296.5 193.41L294.61 193.78L292.64 194.01L290.58 194.1L288.42 194.02L286.16 193.77L283.8 193.33L281.32 192.68L278.71 191.82L275.99 190.72L273.13 189.37L272.92 190.23L272.74 191.1L272.6 191.97L272.5 192.85L272.44 193.73L272.43 194.61L272.47 195.5L272.56 196.38L272.72 197.26L272.93 198.14L273.22 199L273.57 199.86L274 200.71L274.5 201.55L275.08 202.37L275.76 203.18L276.51 203.97L277.37 204.74L278.31 205.49L279.36 206.22L280.51 206.92L281.77 207.59L283.15 208.24L284.63 208.86L286.24 209.45L287.97 210L288.97 210.58L290.01 211.03L291.08 211.37L292.18 211.6L293.3 211.71L294.45 211.72L295.62 211.62L296.81 211.43L298 211.13L299.21 210.74L300.42 210.26L301.64 209.69L302.86 209.04L304.07 208.3L305.28 207.49L306.47 206.6L307.66 205.65L308.83 204.62L309.97 203.53L311.1 202.38L312.2 201.17L313.27 199.91L314.3 198.59L315.3 197.23L316.27 195.82L317.19 194.37L317.32 193.87L317.46 193.37L317.59 192.86L317.73 192.36L317.87 191.86L318 191.35L318.14 190.84L318.27 190.34L318.41 189.83L318.54 189.32L318.67 188.82L318.8 188.31L318.93 187.8L319.06 187.29L319.19 186.78L319.32 186.26L319.44 185.75L319.56 185.24L319.68 184.72L319.8 184.21L319.92 183.69L320.03 183.17L320.14 182.66L320.25 182.14L320.36 181.62L320.47 181.09L319.06 181.65L317.68 182.29ZM382.44 162.33L381.94 162.37L381.46 162.43L381 162.51L380.57 162.6L380.16 162.71L379.77 162.83L379.42 162.97L379.09 163.13L378.79 163.3L378.52 163.49L378.28 163.7L378.08 163.92L377.91 164.15L377.79 164.41L377.7 164.67L377.65 164.96L377.64 165.26L377.68 165.58L377.76 165.91L377.89 166.26L378.07 166.62L378.3 167L378.57 167.4L378.91 167.81L379.66 171.53L380.6 174.89L381.73 177.93L383.01 180.65L384.45 183.06L386.03 185.19L387.73 187.05L389.54 188.65L391.45 190.01L393.44 191.15L395.5 192.07L397.61 192.8L399.76 193.34L401.95 193.72L404.14 193.95L406.34 194.05L408.52 194.02L410.67 193.89L412.78 193.67L414.84 193.38L416.82 193.02L418.73 192.62L420.54 192.19L422.24 191.75L423.81 191.31L425.25 190.88L426.53 190.48L427.65 190.13L428.59 189.84L428.82 188.93L428.97 188.05L429.03 187.19L429.02 186.36L428.93 185.55L428.78 184.76L428.56 184L428.27 183.26L427.94 182.54L427.54 181.84L427.11 181.16L426.62 180.5L426.1 179.86L425.55 179.23L424.96 178.62L424.35 178.03L423.71 177.44L423.06 176.88L422.39 176.32L421.72 175.77L421.04 175.24L420.36 174.72L419.68 174.2L419.01 173.69L418.35 173.19L417.71 172.7L417.09 172.21L416.5 171.73L415.94 171.25L413.44 176.72L411.67 177.38L410.04 177.92L408.53 178.37L407.15 178.71L405.87 178.96L404.7 179.11L403.63 179.19L402.66 179.18L401.77 179.1L400.97 178.96L400.25 178.74L399.6 178.47L399.01 178.15L398.49 177.77L398.02 177.35L397.6 176.89L397.22 176.4L396.88 175.88L396.56 175.34L396.28 174.77L396.01 174.2L395.76 173.61L395.52 173.02L395.28 172.43L395.03 171.85L394.78 171.28L394.51 170.73L394.22 170.2L393.91 169.69L395 165.31L394.68 165.14L394.35 164.97L394.03 164.8L393.7 164.64L393.37 164.49L393.03 164.34L392.7 164.19L392.36 164.06L392.02 163.92L391.68 163.79L391.33 163.67L390.99 163.55L390.64 163.44L390.29 163.33L389.95 163.23L389.6 163.13L389.25 163.04L388.9 162.95L388.56 162.87L388.21 162.79L387.86 162.72L387.52 162.65L387.18 162.59L386.83 162.54L386.49 162.49L386.16 162.44L385.82 162.41L385.49 162.37L385.16 162.34L384.58 162.31L384.03 162.29L383.48 162.29L382.95 162.3L382.44 162.33ZM278.7 159.33L278.24 159.91L277.79 160.49L277.36 161.05L276.94 161.6L276.54 162.15L276.15 162.68L275.79 163.19L275.43 163.7L275.1 164.2L274.78 164.68L274.47 165.16L274.19 165.62L273.92 166.07L273.66 166.51L273.42 166.94L273.2 167.36L273 167.77L272.81 168.17L272.63 168.55L272.48 168.93L272.34 169.29L272.21 169.64L272.1 169.98L272.01 170.31L271.93 170.63L271.88 170.94L271.86 171.19L271.9 171.44L271.98 171.68L272.11 171.92L272.28 172.15L272.49 172.38L272.73 172.6L273 172.82L273.29 173.03L273.61 173.24L273.94 173.44L274.28 173.64L274.64 173.82L275 174.01L275.36 174.18L275.72 174.35L276.07 174.51L276.42 174.67L276.75 174.82L277.06 174.96L277.35 175.09L277.61 175.21L277.85 175.33L278.05 175.44L278.21 175.54L278.33 175.63L278.41 175.71L278.44 175.78L278.34 176.25L278.24 176.72L278.13 177.19L278.01 177.67L277.89 178.15L277.75 178.62L277.61 179.1L277.47 179.57L277.32 180.04L277.17 180.52L277.01 180.98L276.85 181.45L276.69 181.91L276.53 182.37L276.37 182.82L276.21 183.26L276.05 183.7L275.89 184.14L275.73 184.56L275.57 184.98L275.42 185.39L275.28 185.79L275.14 186.18L275 186.56L274.87 186.93L274.75 187.29L274.64 187.64L274.53 187.97L293.44 192.97L320.94 178.59L320.97 178.37L321.01 178.14L321.05 177.91L321.09 177.69L321.13 177.46L321.17 177.23L321.2 177L321.24 176.77L321.28 176.54L321.32 176.31L321.35 176.08L321.39 175.85L321.42 175.62L321.46 175.39L321.49 175.16L321.52 174.93L321.56 174.7L321.59 174.47L321.62 174.24L321.65 174.01L321.68 173.79L321.71 173.56L321.74 173.33L321.77 173.1L321.8 172.87L321.82 172.64L321.85 172.42L321.88 172.19L321.6 171.6L321.31 171.02L321.01 170.44L320.7 169.88L320.37 169.33L320.03 168.8L319.67 168.28L319.3 167.77L318.9 167.28L318.49 166.8L318.06 166.33L317.62 165.89L317.15 165.46L316.66 165.05L316.14 164.66L315.61 164.29L315.05 163.93L314.47 163.6L313.87 163.29L313.24 163L312.58 162.74L311.89 162.49L311.18 162.27L310.44 162.08L309.67 161.91L308.87 161.77L308.05 161.65L307.19 161.56L279.69 158.12L279.19 158.73L278.7 159.33ZM396.41 169.22L396.62 169.83L396.83 170.42L397.05 170.98L397.26 171.52L397.48 172.03L397.71 172.52L397.93 172.99L398.16 173.44L398.4 173.86L398.64 174.26L398.88 174.63L399.13 174.98L399.39 175.31L399.66 175.61L399.93 175.9L400.21 176.15L400.5 176.39L400.8 176.6L401.11 176.78L401.44 176.95L401.77 177.09L402.11 177.2L402.47 177.3L402.84 177.37L403.22 177.41L403.62 177.44L404.03 177.44L404.45 177.41L404.89 177.37L405.35 177.3L405.83 177.2L406.32 177.08L406.83 176.94L407.35 176.78L407.9 176.59L408.47 176.38L409.05 176.15L409.66 175.89L410.29 175.61L410.94 175.31L454.06 76.72L454.53 43.59L405.63 166.87L452.81 43.12L425.78 65.47L396.41 169.22ZM300.08 121.04L300.01 121.04L299.95 121.04L299.89 121.04L299.83 121.04L299.77 121.05L299.71 121.05L299.64 121.05L299.58 121.05L299.52 121.06L299.46 121.06L299.4 121.06L299.34 121.07L299.27 121.07L299.21 121.07L299.15 121.08L299.09 121.08L299.03 121.09L298.97 121.09L298.91 121.09L298.38 121.14L297.86 121.21L297.34 121.3L296.81 121.41L296.29 121.55L295.77 121.7L295.25 121.86L294.74 122.05L294.22 122.26L293.71 122.48L293.2 122.72L292.69 122.98L292.19 123.25L291.69 123.54L291.19 123.84L290.7 124.16L290.21 124.49L289.72 124.83L289.24 125.19L288.76 125.56L288.29 125.95L287.82 126.34L287.36 126.75L286.9 127.17L286.45 127.6L286.01 128.04L285.57 128.48L285.14 128.94L284.72 129.41L284.3 129.88L283.89 130.36L283.49 130.85L283.09 131.34L282.71 131.85L282.33 132.35L281.96 132.87L281.6 133.38L281.25 133.91L280.86 134.52L280.49 135.12L280.11 135.7L279.74 136.27L279.38 136.82L279.02 137.36L278.66 137.9L278.31 138.42L277.97 138.93L277.63 139.44L277.29 139.93L276.97 140.43L276.65 140.91L276.33 141.4L276.03 141.88L275.73 142.36L275.43 142.84L275.15 143.32L274.87 143.8L274.6 144.29L274.34 144.77L274.09 145.27L273.84 145.77L273.61 146.27L273.38 146.79L273.17 147.31L272.96 147.84L272.77 148.39L272.58 148.95L272.4 149.52L272.24 150.1L272.09 150.7L271.94 151.32L271.81 151.95L271.69 152.61L271.58 153.28L271.49 153.97L271.41 154.69L311.56 159.53L324.38 166.88L324.38 166.52L324.37 166.15L324.36 165.79L324.33 165.42L324.3 165.04L324.26 164.66L324.2 164.28L324.15 163.9L324.08 163.51L324.01 163.12L323.93 162.73L323.85 162.33L323.76 161.94L323.66 161.54L323.56 161.14L323.46 160.74L323.36 160.34L323.25 159.94L323.13 159.54L323.02 159.14L322.9 158.74L322.79 158.35L322.67 157.95L322.55 157.56L322.43 157.16L322.31 156.77L322.19 156.38L322.08 156L321.96 155.61L321.85 155.23L321.74 154.86L321.64 154.49L321.53 154.12L321.44 153.75L321.34 153.39L321.25 153.04L321.17 152.69L321.09 152.35L320.93 152.43L320.78 152.52L320.62 152.6L320.46 152.69L320.3 152.78L320.14 152.87L319.99 152.96L319.83 153.04L319.67 153.13L319.51 153.22L319.35 153.31L319.19 153.4L319.02 153.49L318.86 153.57L318.7 153.66L318.53 153.75L318.37 153.84L318.2 153.93L318.04 154.02L317.87 154.1L317.7 154.19L317.53 154.28L317.36 154.37L317.19 154.45L317.02 154.54L316.85 154.63L316.68 154.71L316.5 154.8L316.32 154.88L316.15 154.97L315.97 155.05L315.79 155.14L315.61 155.22L315.43 155.3L315.24 155.38L315.06 155.46L314.87 155.55L314.69 155.63L313.75 155.53L312.83 155.42L311.93 155.31L311.05 155.17L310.2 155.03L309.36 154.87L308.55 154.69L307.76 154.51L307 154.3L306.26 154.08L305.55 153.85L304.85 153.6L304.19 153.34L303.55 153.06L302.93 152.76L302.35 152.45L301.78 152.12L301.25 151.77L300.74 151.41L300.26 151.03L299.81 150.63L299.39 150.21L299 149.77L298.63 149.31L298.3 148.84L298 148.34L297.72 147.83L297.48 147.29L297.27 146.74L297.1 146.16L296.95 145.57L296.84 144.95L296.76 144.31L296.71 143.65L296.7 142.96L296.72 142.26L296.78 141.53L296.88 140.78L297.49 140.73L298.1 140.66L298.71 140.58L299.3 140.49L299.89 140.39L300.46 140.27L301.04 140.15L301.6 140.01L302.16 139.87L302.71 139.71L303.25 139.54L303.79 139.36L304.31 139.17L304.84 138.97L305.35 138.76L305.86 138.54L306.36 138.31L306.86 138.07L307.35 137.82L307.83 137.57L308.31 137.3L308.78 137.02L309.25 136.74L309.71 136.45L310.16 136.15L310.61 135.84L311.06 135.52L311.5 135.2L311.93 134.87L312.36 134.53L312.78 134.18L313.2 133.82L313.62 133.46L314.03 133.1L314.43 132.72L314.84 132.34L315.23 131.95L315.63 131.56L315.32 131.11L315.01 130.66L314.69 130.22L314.37 129.79L314.04 129.37L313.71 128.95L313.37 128.54L313.03 128.14L312.69 127.76L312.34 127.37L311.98 127L311.63 126.64L311.26 126.29L310.9 125.95L310.53 125.61L310.16 125.29L309.78 124.98L309.4 124.67L309.02 124.38L308.63 124.1L308.24 123.83L307.85 123.57L307.45 123.32L307.05 123.09L306.65 122.86L306.25 122.65L305.84 122.45L305.43 122.26L305.02 122.09L304.61 121.92L304.2 121.77L303.78 121.63L303.36 121.51L302.94 121.4L302.52 121.3L302.1 121.22L301.67 121.15L301.25 121.09L301.18 121.09L301.12 121.08L301.06 121.08L301 121.07L300.94 121.07L300.88 121.06L300.82 121.06L300.76 121.05L300.69 121.05L300.63 121.05L300.57 121.04L300.51 121.04L300.45 121.04L300.39 121.04L300.32 121.04L300.26 121.04L300.2 121.04L300.14 121.04L300.08 121.04ZM337.21 101.73L336.07 103.55L335 105.42L333.98 107.32L333 109.26L332.05 111.22L331.13 113.19L330.22 115.17L329.32 117.14L328.41 119.09L327.5 121.02L326.56 122.92L325.59 124.77L324.59 126.57L323.53 128.32L322.42 129.99L321.24 131.58L319.99 133.08L318.66 134.49L317.23 135.79L315.7 136.97L314.06 138.03L312.3 138.96L310.42 139.74L308.39 140.37L306.22 140.84L303.89 141.13L301.41 141.25L301.42 141.7L301.43 142.15L301.42 142.6L301.42 143.05L301.41 143.51L301.4 143.95L301.4 144.4L301.41 144.85L301.44 145.29L301.49 145.72L301.56 146.15L301.66 146.57L301.79 146.99L301.96 147.4L302.17 147.8L302.42 148.19L302.72 148.57L303.08 148.93L303.49 149.29L303.97 149.64L304.51 149.97L305.12 150.28L305.81 150.58L306.57 150.87L307.42 151.14L308.35 151.39L309.38 151.62L310.5 151.84L311.72 152.03L313.94 151.98L316.08 151.67L318.12 151.1L320.08 150.3L321.94 149.28L323.72 148.05L325.4 146.63L327 145.04L328.5 143.29L329.92 141.4L331.24 139.37L332.48 137.24L333.62 135L334.68 132.68L335.64 130.3L336.52 127.86L337.3 125.38L338 122.88L338.6 120.37L339.12 117.87L339.54 115.4L339.87 112.96L340.12 110.58L340.27 108.27L340.33 106.04L340.31 103.91L340.19 101.9L339.98 100.02L339.69 98.28L338.41 99.97L337.21 101.73ZM272.44 96.29L271.65 98.69L270.99 101.08L270.45 103.46L270.05 105.83L269.77 108.21L269.64 110.59L269.64 112.99L269.78 115.4L270.06 117.84L270.49 120.31L271.06 122.82L271.79 125.36L272.67 127.96L273.7 130.61L274.89 133.32L276.25 136.1L276.37 135.9L276.49 135.71L276.61 135.52L276.73 135.33L276.86 135.13L276.98 134.94L277.1 134.75L277.22 134.55L277.34 134.36L277.45 134.17L277.57 133.98L277.68 133.79L277.79 133.6L277.89 133.41L277.99 133.22L278.09 133.03L278.19 132.84L278.28 132.66L278.54 132.17L278.81 131.69L279.07 131.23L279.33 130.76L279.59 130.31L279.85 129.87L280.12 129.43L280.38 129L280.65 128.58L280.91 128.16L281.18 127.76L281.45 127.36L281.72 126.97L282 126.59L282.28 126.22L282.56 125.85L282.84 125.5L283.13 125.16L282.66 123.81L282.13 122.41L281.55 120.96L280.93 119.45L280.28 117.89L279.6 116.27L278.93 114.59L278.25 112.84L277.6 111.03L276.97 109.16L276.38 107.21L275.85 105.19L275.38 103.09L274.98 100.92L274.67 98.67L274.46 96.33L274.36 93.91L274.38 91.41L273.35 93.86L272.44 96.29Z" id="eh7gMvpqZ"></path></defs><g><g><g><use xlink:href="#fpb1H80yk" opacity="1" fill="url(#gradientdROu7XgEt)"></use><g><use xlink:href="#fpb1H80yk" opacity="1" fill-opacity="0" stroke="#000000" stroke-width="1" stroke-opacity="0"></use></g></g><g><use xlink:href="#j2AoTW4GZ" opacity="1" fill="url(#gradientaWp2vpgaP)"></use><g><use xlink:href="#j2AoTW4GZ" opacity="1" fill-opacity="0" stroke="#000000" stroke-width="1" stroke-opacity="0"></use></g></g><g><use xlink:href="#b2KkJTJzFe" opacity="1" fill="url(#gradientded06wYWL)"></use><g><use xlink:href="#b2KkJTJzFe" opacity="1" fill-opacity="0" stroke="#000000" stroke-width="1" stroke-opacity="0"></use></g></g><g><use xlink:href="#fFazzr3MY" opacity="1" fill="url(#gradientjeV6RsXbQ)"></use><g><use xlink:href="#fFazzr3MY" opacity="1" fill-opacity="0" stroke="#000000" stroke-width="1" stroke-opacity="0"></use></g></g><g><use xlink:href="#dgtIpGXwO" opacity="1" fill="#ffffff" fill-opacity="0.13"></use><g><use xlink:href="#dgtIpGXwO" opacity="1" fill-opacity="0" stroke="#000000" stroke-width="1" stroke-opacity="0"></use></g></g><g><use xlink:href="#c1YtBsebAz" opacity="1" fill="url(#gradientdsY2qCKY8)"></use><g><use xlink:href="#c1YtBsebAz" opacity="1" fill-opacity="0" stroke="#000000" stroke-width="1" stroke-opacity="0"></use></g></g><g><use xlink:href="#ddr8pXDG6" opacity="1" fill="url(#gradientb8uDn2BmXJ)"></use><g><use xlink:href="#ddr8pXDG6" opacity="1" fill-opacity="0" stroke="#000000" stroke-width="1" stroke-opacity="0"></use></g></g><g><use xlink:href="#ahMPGIUBh" opacity="1" fill="#000000" fill-opacity="0.16"></use><g><use xlink:href="#ahMPGIUBh" opacity="1" fill-opacity="0" stroke="#000000" stroke-width="1" stroke-opacity="0"></use></g></g><g><use xlink:href="#dc8q4IyTs" opacity="1" fill="url(#gradiente7Ly4REmoN)"></use><g><use xlink:href="#dc8q4IyTs" opacity="1" fill-opacity="0" stroke="#000000" stroke-width="1" stroke-opacity="0"></use></g></g><g><use xlink:href="#bbo7kXKrF" opacity="1" fill="url(#gradientkcoL0FSbz)"></use><g><use xlink:href="#bbo7kXKrF" opacity="1" fill-opacity="0" stroke="#000000" stroke-width="1" stroke-opacity="0"></use></g></g><g><use xlink:href="#aq91K7jgA" opacity="1" fill="url(#gradientguoPF3qNk)"></use><g><use xlink:href="#aq91K7jgA" opacity="1" fill-opacity="0" stroke="#000000" stroke-width="1" stroke-opacity="0"></use></g></g><g><use xlink:href="#a35TczRzjP" opacity="1" fill="url(#gradientg1meFyDL1J)"></use><g><use xlink:href="#a35TczRzjP" opacity="1" fill-opacity="0" stroke="#000000" stroke-width="1" stroke-opacity="0"></use></g></g><g><use xlink:href="#i2s3mM0rck" opacity="1" fill="url(#gradiente1GDoeHQ5l)"></use><g><use xlink:href="#i2s3mM0rck" opacity="1" fill-opacity="0" stroke="#000000" stroke-width="1" stroke-opacity="0"></use></g></g><g><use xlink:href="#baAFZr0O" opacity="1" fill="url(#gradientaQwbCfDDs)"></use><g><use xlink:href="#baAFZr0O" opacity="1" fill-opacity="0" stroke="#000000" stroke-width="1" stroke-opacity="0"></use></g></g><g><use xlink:href="#eh7gMvpqZ" opacity="1" fill="#000000" fill-opacity="1"></use><g><use xlink:href="#eh7gMvpqZ" opacity="1" fill-opacity="0" stroke="#000000" stroke-width="1" stroke-opacity="0"></use></g></g></g></g></svg>